STARTFONT 2.3
FONT -FontForge-Zen Tokyo Zoo-Book-R-Normal--32-320-72-72-P-151-ISO10646-1
SIZE 32 72 72  4
FONTBOUNDINGBOX 43 41 -4 -7
COMMENT "Generated by fontforge, http://fontforge.sourceforge.net"
COMMENT "Copyright 2021 The Zen Tokyo Zoo Project Authors (https://github.com/googlefonts/zen-tokyo-zoo)"
STARTPROPERTIES 40
FOUNDRY "FontForge"
FAMILY_NAME "Zen Tokyo Zoo"
WEIGHT_NAME "Book"
SLANT "R"
SETWIDTH_NAME "Normal"
ADD_STYLE_NAME ""
PIXEL_SIZE 32
POINT_SIZE 320
RESOLUTION_X 72
RESOLUTION_Y 72
SPACING "P"
AVERAGE_WIDTH 151
CHARSET_REGISTRY "ISO10646"
CHARSET_ENCODING "1"
FONTNAME_REGISTRY ""
CHARSET_COLLECTIONS "ISO10646-1"
BITS_PER_PIXEL 4
FONT_NAME "ZenTokyoZoo-Regular"
FACE_NAME "Zen Tokyo Zoo Regular"
COPYRIGHT "Copyright 2021 The Zen Tokyo Zoo Project Authors (https://github.com/googlefonts/zen-tokyo-zoo)"
FONT_VERSION "1.002; ttfautohint (v1.8.3)"
FONT_ASCENT 26
FONT_DESCENT 6
UNDERLINE_POSITION -5
UNDERLINE_THICKNESS 1
X_HEIGHT 12
CAP_HEIGHT 24
RAW_ASCENT 800
RAW_DESCENT 200
NORM_SPACE 9
RELATIVE_WEIGHT 40
RELATIVE_SETWIDTH 50
SUPERSCRIPT_X 0
SUPERSCRIPT_Y 11
SUPERSCRIPT_SIZE 19
SUBSCRIPT_X 0
SUBSCRIPT_Y 2
SUBSCRIPT_SIZE 19
AVG_LOWERCASE_WIDTH 133
AVG_UPPERCASE_WIDTH 243
ENDPROPERTIES
CHARS 338
STARTCHAR CR
ENCODING 13
SWIDTH 600 0
DWIDTH 19 0
BBX 1 1 0 0
BITMAP
00
ENDCHAR
STARTCHAR space
ENCODING 32
SWIDTH 280 0
DWIDTH 9 0
BBX 1 1 0 0
BITMAP
00
ENDCHAR
STARTCHAR exclam
ENCODING 33
SWIDTH 196 0
DWIDTH 6 0
BBX 4 13 1 0
BITMAP
684A
684A
684A
684A
684A
684A
684A
684A
684A
0000
5749
684A
684A
ENDCHAR
STARTCHAR quotedbl
ENCODING 34
SWIDTH 302 0
DWIDTH 10 0
BBX 9 4 0 9
BITMAP
3C1D03B1D0
3C1D03B1D0
3C1D03B1D0
3C1D03B1D0
ENDCHAR
STARTCHAR numbersign
ENCODING 35
SWIDTH 513 0
DWIDTH 16 0
BBX 14 13 1 0
BITMAP
0001D0E00D1C20
0003B2D0000000
06B694B7EEEEEC
00087680000000
067A586BEEEEEC
000C2A40000000
00000000C3A500
6EEEEEE3E1C3C0
00000001D0E000
6EEEEED4B2D5C0
0021110694A000
00B39508668000
00D1C30B496000
ENDCHAR
STARTCHAR dollar
ENCODING 36
SWIDTH 379 0
DWIDTH 12 0
BBX 11 16 1 -1
BITMAP
000034000000
000068000000
02A6684C3000
3D506803D400
B54568353D00
E1C357160400
C37D73000000
5C327BD92000
04CB6216D400
00038CC33D00
0000334D0D20
90B4682D0E10
A71368226B00
1CA26819D200
006468361000
000068000000
ENDCHAR
STARTCHAR percent
ENCODING 37
SWIDTH 493 0
DWIDTH 16 0
BBX 15 13 0 0
BITMAP
019EEA1000A57900
0B9CD8C005A2C100
2D3BA4C32D1C3000
1D0BC1C2B5780000
0A9118B693C00000
019DD93D1C300000
000000B488000000
00000793C3BED700
00002C1C4D8EBB70
0000C3876977D2D0
000784C0692D92D0
003C1D201D502B70
00C3960003BED700
ENDCHAR
STARTCHAR ampersand
ENCODING 38
SWIDTH 487 0
DWIDTH 16 0
BBX 14 13 1 0
BITMAP
00008DEE910000
0008ABEC9B0000
001E3D1B5C3000
003C1E0A595000
001D0A730B4000
000B42E35D0000
0003D15C320000
04D17A0A90D388
1E341A71D433E2
4B2E31D43D1950
3D0BE63D28B000
0B920236C1C600
018DED90992E30
ENDCHAR
STARTCHAR quotesingle
ENCODING 39
SWIDTH 146 0
DWIDTH 5 0
BBX 4 4 0 9
BITMAP
3C1D
3C1D
3C1D
3C1D
ENDCHAR
STARTCHAR parenleft
ENCODING 40
SWIDTH 210 0
DWIDTH 7 0
BBX 5 15 1 -1
BITMAP
026170
096780
1D1D10
594B00
958700
C2B400
E0D200
E0E100
E0D100
E1C300
B49500
876900
3C1D00
0C3B40
05A4C0
ENDCHAR
STARTCHAR parenright
ENCODING 41
SWIDTH 210 0
DWIDTH 7 0
BBX 6 15 0 -1
BITMAP
161700
0C3B40
0594B0
01D0D1
00B3A5
008668
00684A
00593B
00694B
007859
00A587
00D2B3
03C1D0
096780
1D1D10
ENDCHAR
STARTCHAR asterisk
ENCODING 42
SWIDTH 358 0
DWIDTH 11 0
BBX 9 9 1 5
BITMAP
0001010000
00065B0000
04165B0420
05A2008710
3B70002A80
0041003100
00B4357700
035B285700
0014005000
ENDCHAR
STARTCHAR plus
ENCODING 43
SWIDTH 394 0
DWIDTH 13 0
BBX 11 9 1 2
BITMAP
0004B2D00000
0004B2D00000
0004B2D00000
AE94B2D0EE50
0004B2D00000
AE94B2D0EE50
0004B2D00000
0004B2D00000
0004B2D00000
ENDCHAR
STARTCHAR comma
ENCODING 44
SWIDTH 216 0
DWIDTH 7 0
BBX 5 4 1 -1
BITMAP
0A5870
0E1C30
4B1E00
966900
ENDCHAR
STARTCHAR hyphen
ENCODING 45
SWIDTH 326 0
DWIDTH 10 0
BBX 8 3 1 5
BITMAP
6EEEEEEC
00000000
6EEEEEEC
ENDCHAR
STARTCHAR period
ENCODING 46
SWIDTH 176 0
DWIDTH 6 0
BBX 4 3 1 0
BITMAP
9385
B495
B495
ENDCHAR
STARTCHAR slash
ENCODING 47
SWIDTH 298 0
DWIDTH 10 0
BBX 8 13 1 0
BITMAP
0000D396
0003D0E1
000884B0
000D3960
003D0E10
00874B00
00D29600
03C0E100
0874B000
0D296000
3C0E1000
874B0000
D2960000
ENDCHAR
STARTCHAR zero
ENCODING 48
SWIDTH 306 0
DWIDTH 10 0
BBX 9 13 0 0
BITMAP
005CEEB300
05D9EE8D20
0D3D36A690
0E0E04B2C0
1E0E04B2C0
1E0E04B2C0
1E0E04B2C0
1E0E04B2C0
1E0E04B2C0
0E0D36A2C0
0D35DD3690
05D4015E20
005CEEB300
ENDCHAR
STARTCHAR one
ENCODING 49
SWIDTH 306 0
DWIDTH 10 0
BBX 8 13 1 0
BITMAP
6EE0D1C3
0000D1C3
6EE0D1C3
0000D1C3
0000D1C3
0000D1C3
0000D1C3
0000D1C3
0000D1C3
0000D1C3
0000D1C3
0000D1C3
0000D1C3
ENDCHAR
STARTCHAR two
ENCODING 50
SWIDTH 299 0
DWIDTH 10 0
BBX 9 13 0 0
BITMAP
004CEDA200
03D4016D10
0A55ED3970
0918397690
00003D2960
0002D34C00
001D43D200
01C62D4000
0871B50000
0000000000
1EEEEEEE60
0000000000
1EEEEEEE60
ENDCHAR
STARTCHAR three
ENCODING 51
SWIDTH 324 0
DWIDTH 10 0
BBX 9 13 1 0
BITMAP
03BEED7000
4D5002A900
D32CE70C30
80561E0860
0000000740
0000BC7000
000003C900
0000B51D20
00001E0950
E0872E0950
B62CD51E20
3E6103C800
03AEEC6000
ENDCHAR
STARTCHAR four
ENCODING 52
SWIDTH 339 0
DWIDTH 11 0
BBX 10 13 0 0
BITMAP
00006A0C40
0000D34C00
0005B0C400
000C44C000
005C0B5000
00C53D0000
04C0B6691D
000000691D
1EEEE4691D
000000691D
1EEEE4691D
000000691D
000000691D
ENDCHAR
STARTCHAR five
ENCODING 53
SWIDTH 363 0
DWIDTH 12 0
BBX 8 13 2 0
BITMAP
8EEEEEEB
00000000
8EEEEEEB
00000000
86780000
86783510
867829C1
86782279
00004B1D
A2854D0E
A73DD54C
2E6104D4
03BEEC40
ENDCHAR
STARTCHAR six
ENCODING 54
SWIDTH 306 0
DWIDTH 10 0
BBX 9 13 0 0
BITMAP
005CEEB500
05D9ED6C60
0D3D358390
0E0E000000
1E0E000000
1E0E1EA200
1E0E016D20
1E0E1A1880
1E0E1A93C0
0E0D36A3C0
0D35DD3880
05D4016D10
005CEEA200
ENDCHAR
STARTCHAR seven
ENCODING 55
SWIDTH 298 0
DWIDTH 10 0
BBX 8 13 1 0
BITMAP
CEEEEEE9
00000000
00000000
CEEEEEE9
00000000
0002D0E1
000784B0
000B3960
001E0D20
00593C00
00A57800
00E1C300
04B1E000
ENDCHAR
STARTCHAR eight
ENCODING 56
SWIDTH 306 0
DWIDTH 10 0
BBX 8 13 1 0
BITMAP
05CEEB30
5D9ED7D4
D3D36A5B
E0C5283C
E13E6089
9803D811
1C911CA0
928C30B7
F143C54C
F0D36A3C
C45DD378
4D4016D2
04CEEA20
ENDCHAR
STARTCHAR nine
ENCODING 57
SWIDTH 306 0
DWIDTH 10 0
BBX 8 13 1 0
BITMAP
05CEEB30
6D8EE8D2
D3D36A69
F0C64B2C
D3384B2C
6D404B2C
05CB4B2C
00004B2C
00004B2C
B0A36A2C
C45DD369
4D4015D2
04CEEB30
ENDCHAR
STARTCHAR colon
ENCODING 58
SWIDTH 176 0
DWIDTH 6 0
BBX 4 8 1 0
BITMAP
9385
B495
B495
0000
0000
9385
B495
B495
ENDCHAR
STARTCHAR semicolon
ENCODING 59
SWIDTH 217 0
DWIDTH 7 0
BBX 5 9 1 -1
BITMAP
057480
0684A0
0684A0
000000
000000
084660
0E1B30
4B1E00
865900
ENDCHAR
STARTCHAR less
ENCODING 60
SWIDTH 450 0
DWIDTH 14 0
BBX 13 14 1 -1
BITMAP
00000000004D20
000000002AD400
00000018E70610
000006D913CB10
00012932AD5000
003D811B700000
4B319D60000000
05D913BC400000
0017E705DA2000
00002AD507E800
0000003CB31920
000000006D9100
00000000018E10
00000000000210
ENDCHAR
STARTCHAR equal
ENCODING 61
SWIDTH 344 0
DWIDTH 11 0
BBX 9 8 1 1
BITMAP
AEEEEEEEB0
0000000000
AEEEEEEEB0
0000000000
0000000000
AEEEEEEEB0
0000000000
AEEEEEEEB0
ENDCHAR
STARTCHAR greater
ENCODING 62
SWIDTH 450 0
DWIDTH 14 0
BBX 12 14 1 0
BITMAP
300000000000
8C4000000000
04DA20000000
9507E8100000
3CB319D50000
006D913BC300
00018E605D91
000002AD4189
0004D404C700
02BC41950000
7E606E810000
514CB2000000
2AD400000000
A70000000000
ENDCHAR
STARTCHAR question
ENCODING 63
SWIDTH 346 0
DWIDTH 11 0
BBX 9 13 1 0
BITMAP
008DFD8100
0AA2029B00
3D0AEB1C40
47291B5870
00000D3850
0000B90D30
000891B900
000D298000
000F0D2000
000E0E1000
0001010000
000C0B1000
000E0D1000
ENDCHAR
STARTCHAR at
ENCODING 64
SWIDTH 490 0
DWIDTH 16 0
BBX 14 13 1 0
BITMAP
00039DEEC82000
009CCDEEDBC700
099C930039A960
4AA62AEBAA77B1
B4B1CDEAAA0B47
B6669903AA093A
B7486902AA094A
B66668ECBB1B58
B4A1C513EAEBC2
4A952BEA4BED50
099A8200680000
009CBCCB941000
00039DEEC71000
ENDCHAR
STARTCHAR A
ENCODING 65
SWIDTH 798 0
DWIDTH 26 0
BBX 25 25 0 0
BITMAP
0000000004B1E1B40000000000
000000000966A2D11000000000
000000001E1C47857000000000
000000005A2D0D23C000000000
00000000B4884C10D300000000
00000002D0D396757800000000
0000000784C1E15A2E00000000
0000000D2965A10D1B50000000
0000003C1E1B483975A0000000
000000966A2D0793C0E1000000
000000E1B57801E0C397000000
000005A2E0D300A5793C000000
00000B4783C0005B1E0D300000
00001D0D3960000E2A57900000
0000783C0E10000975A1E00000
0000C3975A000003D0E1B50000
0003C0E1B57EEEE1C3975A0000
000975A1E0000000793C0E1000
000E1B5784EEEEEC1E0C397000
005A1E0C300000000A5793C000
00A5793C1EEEEEEE95B1E0C300
01E0C3970000000000E2A57900
0693D0E10000000000875B1E00
0C3975A000000000003D0E2A50
3D0E2A5000000000000C3875B0
ENDCHAR
STARTCHAR B
ENCODING 66
SWIDTH 784 0
DWIDTH 25 0
BBX 24 25 1 0
BITMAP
684A3C1EEEEEEEEDB6100000
684A3C000000000149D40000
684A3C1EEEEEEEED933D4000
684A3C00000000016D63D100
684A3C1EEEEEEEEC51D38800
684A3C0000000003C5693C00
684A3C00000000004A2C1E00
684A3C00000000005A2C1E00
684A3C0000000003C5693C00
684A3C1EEEEEEEEC51D39800
684A3C00000000016D53D100
684A3C1EEEEEEEED923D4100
684A3C00000000014AD30C10
684A3C1EEEEEEEEDB5153870
684A3C0000000000033793C0
684A3C000000000006A2C0E0
684A3C000000000002C0E0D1
684A3C000000000003C0E0E1
684A3C00000000000793C1E0
684A3C00000000026E2975B0
684A3C2EEEEEEEEEA35D1C50
684A3C000000000139D27B00
684A3C2EEEEEEEEEB618D100
684A3C000000000127DA1000
684A3C2EEEEEEEEED9300000
ENDCHAR
STARTCHAR C
ENCODING 67
SWIDTH 776 0
DWIDTH 25 0
BBX 23 25 1 0
BITMAP
0000000037BDEEEDB8510000
0000005CDDDEEEEDCAAE9200
00002CCBD94200137BD55D70
0003D8D8149CEEDB714C9110
002D6D42CC6200148E818100
01D6D44D6000000001A90000
079882D30000000000010000
1E3E1B600000000000000000
5A593D000000000000000000
A5A578000000000000000000
D2C2A5000000000000000000
E0D1C3000000000000000000
E0D1C3000000000000000000
E0C2A5000000000000000000
D2A578000000000000000000
A5593D000000000000000000
5A1E1B700000000000000000
1E2891D30000000000010000
0791C44D6000000001A80000
01D52D42CC6200148D718100
002D32C8149CEEDB714C9110
0003D617D95200137BC51B80
00002CB315ACEEDC8417D700
0000005DB731001259D92000
0000000037BDEEECA5100000
ENDCHAR
STARTCHAR D
ENCODING 68
SWIDTH 806 0
DWIDTH 26 0
BBX 24 25 1 0
BITMAP
684A3C1EEEEECA6200000000
684A3C000001248DB4000000
684A3C1EEEEECA615CA10000
684A3C00000025AE719C2000
684A3C1EEEEEC831AD26C100
684A3C00000137DA16D28A00
684A3C0000000007D37C1D40
684A3C00000000005D1A74C0
684A3C00000000000892E0D2
684A3C000000000001E1B597
684A3C000000000000A5785A
684A3C000000000000785A4B
684A3C000000000000784B3C
684A3C000000000000785A4B
684A3C000000000000A5785A
684A3C000000000001E1B597
684A3C000000000008A2E0D2
684A3C00000000005D1A74C0
684A3C0000000007D37D1C40
684A3C00000137DB16D28B00
684A3C1EEEEEC831AD26D100
684A3C00000125AE818D2000
684A3C1EEEEECA515CA10000
684A3C000001248DC4000000
684A3C1EEEEEDB7300000000
ENDCHAR
STARTCHAR E
ENCODING 69
SWIDTH 677 0
DWIDTH 22 0
BBX 20 25 1 0
BITMAP
684A3C1EEEEEEEEEEEEA
684A3C00000000000000
684A3C1EEEEEEEEEEEEA
684A3C00000000000000
684A3C1EEEEEEEEEEEEA
684A3C00000000000000
684A3C00000000000000
684A3C00000000000000
684A3C00000000000000
684A3C00000000000000
684A3C1EEEEEEEEEED00
684A3C00000000000000
684A3C1EEEEEEEEEED00
684A3C00000000000000
684A3C1EEEEEEEEEED00
684A3C00000000000000
684A3C00000000000000
684A3C00000000000000
684A3C00000000000000
684A3C00000000000000
684A3C1EEEEEEEEEEEEA
684A3C00000000000000
684A3C1EEEEEEEEEEEEA
684A3C00000000000000
684A3C1EEEEEEEEEEEEA
ENDCHAR
STARTCHAR F
ENCODING 70
SWIDTH 677 0
DWIDTH 22 0
BBX 20 25 1 0
BITMAP
684A3C1EEEEEEEEEEEEA
684A3C00000000000000
684A3C1EEEEEEEEEEEEA
684A3C00000000000000
684A3C1EEEEEEEEEEEEA
684A3C00000000000000
684A3C00000000000000
684A3C00000000000000
684A3C00000000000000
684A3C00000000000000
684A3C1EEEEEEEEEED00
684A3C00000000000000
684A3C1EEEEEEEEEED00
684A3C00000000000000
684A3C1EEEEEEEEEED00
684A3C00000000000000
684A3C00000000000000
684A3C00000000000000
684A3C00000000000000
684A3C00000000000000
684A3C00000000000000
684A3C00000000000000
684A3C00000000000000
684A3C00000000000000
684A3C00000000000000
ENDCHAR
STARTCHAR G
ENCODING 71
SWIDTH 872 0
DWIDTH 28 0
BBX 26 25 1 0
BITMAP
0000000037BDEEEDB830000000
0000005CDDDEEEEDCBCD600000
00002CCBD94200136BD7AD3000
0003D8D8149CEEEB724D95D600
002D6D42CC6200138E71AA2D50
01D6D44D6000000001BA1C8220
079882D300000000000A826000
1E3E1B60000000000001900000
5A593D00000000000000000000
A5A57800000000000000000000
D2C2A500000000000000000000
E0D1C300000009EEEEEEEEEEED
E0D1C300000000000000000000
E0C2A500000009EEEEEEEEEEED
D2A57800000000000000000000
A5593D00000009EEEEEEEEEEED
5A1E1B70000000000000000000
1E2891D300000000000991D387
0791C44D6000000001AB1A82E1
01D52D42CC6200249E819B1C60
002D32C8149CEEDB723C91A900
0003D617D95200136BD52C9000
00002CB315ACEEEC9417D70000
0000005DB731001259E9200000
0000000037BDEEEDA610000000
ENDCHAR
STARTCHAR H
ENCODING 72
SWIDTH 781 0
DWIDTH 25 0
BBX 23 25 1 0
BITMAP
684A3C00000000000C3A4860
684A3C00000000000C3A4860
684A3C00000000000C3A4860
684A3C00000000000C3A4860
684A3C00000000000C3A4860
684A3C00000000000C3A4860
684A3C00000000000C3A4860
684A3C00000000000C3A4860
684A3C00000000000C3A4860
684A3C00000000000C3A4860
684A3C1EEEEEEEEE1C3A4860
684A3C00000000000C3A4860
684A3C1EEEEEEEEE1C3A4860
684A3C00000000000C3A4860
684A3C1EEEEEEEEE1C3A4860
684A3C00000000000C3A4860
684A3C00000000000C3A4860
684A3C00000000000C3A4860
684A3C00000000000C3A4860
684A3C00000000000C3A4860
684A3C00000000000C3A4860
684A3C00000000000C3A4860
684A3C00000000000C3A4860
684A3C00000000000C3A4860
684A3C00000000000C3A4860
ENDCHAR
STARTCHAR I
ENCODING 73
SWIDTH 262 0
DWIDTH 8 0
BBX 6 25 1 0
BITMAP
684A3C
684A3C
684A3C
684A3C
684A3C
684A3C
684A3C
684A3C
684A3C
684A3C
684A3C
684A3C
684A3C
684A3C
684A3C
684A3C
684A3C
684A3C
684A3C
684A3C
684A3C
684A3C
684A3C
684A3C
684A3C
ENDCHAR
STARTCHAR J
ENCODING 74
SWIDTH 674 0
DWIDTH 22 0
BBX 20 25 0 0
BITMAP
000000000000003B2D0E
000000000000003B2D0E
000000000000003B2D0E
000000000000003B2D0E
000000000000003B2D0E
000000000000003B2D0E
000000000000003B2D0E
000000000000003B2D0E
000000000000003B2D0E
000000000000003B2D0E
000000000000003B2D0E
000000000000003B2D0E
000000000000003B2D0E
000000000000003B2D0E
000000000000003B2D0E
492B1C000000003B2D0E
4A2D0E000000004A3C0E
2D0E1C30000000875A2C
0D2A66B0000002E2B569
0883D19B41016D54D0C3
01D37C25BDED924D37B0
005D16D831024AD34D10
0007D317BDEDB517D300
00004DA5200026CB1000
0000005ADEEEC9300000
ENDCHAR
STARTCHAR K
ENCODING 75
SWIDTH 739 0
DWIDTH 24 0
BBX 23 25 1 0
BITMAP
684A3C000000001C54D19800
684A3C00000000991D35C000
684A3C00000005C1B72D2000
684A3C0000002D27B1C50000
684A3C000000C54D19900000
684A3C00000991D35C000000
684A3C00005D1B72D2000000
684A3C0000D37B1C50000000
684A3C000224D19900000000
684A3C003D1846C000000000
684A3C0428B02E2000000000
684A3C05D1B8140000000000
684A3C918A1D500000000000
684A3C6B0B72E20000000000
684A3C0A81D45D1000000000
684A3C01C53E28A000000000
684A3C002D36C1B800000000
684A3C0004D19A1D50000000
684A3C00007B0B73D2000000
684A3C00000A81D45D100000
684A3C000001C53D28A00000
684A3C0000002D36C1B70000
684A3C00000004D1991D4000
684A3C000000007B1C63D200
684A3C000000000A82D35C10
ENDCHAR
STARTCHAR L
ENCODING 76
SWIDTH 604 0
DWIDTH 19 0
BBX 18 25 1 0
BITMAP
684A3C000000000000
684A3C000000000000
684A3C000000000000
684A3C000000000000
684A3C000000000000
684A3C000000000000
684A3C000000000000
684A3C000000000000
684A3C000000000000
684A3C000000000000
684A3C000000000000
684A3C000000000000
684A3C000000000000
684A3C000000000000
684A3C000000000000
684A3C000000000000
684A3C000000000000
684A3C000000000000
684A3C000000000000
684A3C000000000000
684A3C1EEEEEEEEEED
684A3C000000000000
684A3C1EEEEEEEEEED
684A3C000000000000
684A3C1EEEEEEEEEED
ENDCHAR
STARTCHAR M
ENCODING 77
SWIDTH 909 0
DWIDTH 29 0
BBX 27 25 1 0
BITMAP
684A3C000000000000000B496770
684A3C000000000000011B496770
684A3C1700000000000A2B496770
684A3C0D30000000006C0B496770
684A3C04C000000002E20B496770
684A3C12890000000C532B496770
684A3C1B1C4000008A1D2B496770
684A3C0A73D10004D1990B496770
684A3C01D37A001D45D10B496770
684A3C154C1B60982E372B496770
684A3C1E2982D230B73D1B496770
684A3C06C1D45C05B1D40B496770
684A3C00A83D1A7119800B496770
684A3C001D47A1D31C000B496770
684A3C0003D1C64D10000B496770
684A3C00007B2D2870000B496770
684A3C00000B66C110000B496770
684A3C000002D3A200000B496770
684A3C0000005C0000000B496770
684A3C000000040000000B496770
684A3C000000000000000B496770
684A3C000000000000000B496770
684A3C000000000000000B496770
684A3C000000000000000B496770
684A3C000000000000000B496770
ENDCHAR
STARTCHAR N
ENCODING 78
SWIDTH 796 0
DWIDTH 25 0
BBX 23 25 1 0
BITMAP
684A3C000000000005A3C1D0
684A3C120000000005A3C1D0
684A3C1B0000000005A3C1D0
684A3C0B7000000005A3C1D0
684A3C01D300000005A3C1D0
684A3C154D10000005A3C1D0
684A3C1E2890000005A3C1D0
684A3C07B1C5000005A3C1D0
684A3C01B72E200005A3C1D0
684A3C191D36B00005A3C1D0
684A3C0C54D1A70005A3C1D0
684A3C03D2891D3005A3C1D0
684A3C006B1C54D105A3C1D0
684A3C000B72D28A05A3C1D0
684A3C0001D36B1C55A3C1D0
684A3C00004D1A7275A3C1D0
684A3C00000891D315A3C1D0
684A3C000000C54D15A3C1D0
684A3C0000002D2875A3C1D0
684A3C00000006B055A3C1D0
684A3C00000000A705A3C1D0
684A3C000000001D35A3C1D0
684A3C000000000485A3C1D0
684A3C000000000025A3C1D0
684A3C000000000005A3C1D0
ENDCHAR
STARTCHAR O
ENCODING 79
SWIDTH 894 0
DWIDTH 29 0
BBX 27 25 1 0
BITMAP
0000000037BDEEDCA61000000000
0000005CDDDEEEEEDDEA20000000
00002CCBD94200136BDBD7000000
0003D8D8149CEEEB823CABB10000
002D6D42CC6200138D809A9A0000
01D6D44D6000000001AB1A8B7000
079882D300000000000991D3E200
1E3E1B60000000000000C5697900
5A593D000000000000004C1E1E00
A5A578000000000000000E2B4B40
D2C2A5000000000000000B486870
E0D1C30000000000000009677680
E0D1C30000000000000009677590
E0C2A5000000000000000B486680
D2A578000000000000000E1B4870
A5593D000000000000005C1E0B40
5A1E1B70000000000000C4691E00
1E2891D300000000000991D27900
0791C44D6000000001AB1A71E200
01D52D42CC6200138D809A0B7000
002D32C8149CEEEB723C809A0000
0003D617D95200136BC41BB10000
00002CB315ACEEDC8306D7000000
0000005DB731001259DA20000000
0000000037BDEEECA62000000000
ENDCHAR
STARTCHAR P
ENCODING 80
SWIDTH 743 0
DWIDTH 24 0
BBX 22 25 1 0
BITMAP
684A3C1EEEEEEEEDB61000
684A3C000000000149D400
684A3C1EEEEEEEED933D40
684A3C00000000016D63D1
684A3C1EEEEEEEEC51D388
684A3C0000000003C5693C
684A3C00000000004A2C1E
684A3C00000000005A2C1E
684A3C0000000003C5693C
684A3C1EEEEEEEEC51D398
684A3C00000000016D53D1
684A3C1EEEEEEEED923D40
684A3C00000000014AD300
684A3C1EEEEEEEEDB51000
684A3C0000000000000000
684A3C0000000000000000
684A3C0000000000000000
684A3C0000000000000000
684A3C0000000000000000
684A3C0000000000000000
684A3C0000000000000000
684A3C0000000000000000
684A3C0000000000000000
684A3C0000000000000000
684A3C0000000000000000
ENDCHAR
STARTCHAR Q
ENCODING 81
SWIDTH 911 0
DWIDTH 29 0
BBX 28 25 1 0
BITMAP
0000000037BDEEDCA62000000000
0000005CDDDEEEEEDDEA20000000
00002CCBD94200136BDBD8000000
0003D8D8149CEEEB723CABB10000
002D6D42CC6200138E81AA9B0000
01D6D44D6000000001BB1B7A8000
079882D300000000000991D3E200
1E3E1B60000000000001D4797A00
5A593D000000000000005B1E1E00
A5A578000000000000001E1B4B40
D2C2A5000000000000000C496870
E0D1C3000000000000000A577680
E0D1C30000000000000009577590
E0C2A5000000000000230B496690
D2A5780000000000005D371B4870
A5593D00000000000C35D31E0C30
5A1E1B700000000234D34E342E00
1E2891D300000004D33D34E35800
0791C44D600000003D43D44E3000
01D52D42CC62001443D43D44E300
002D32C8149CEEDB603D43D43E40
0003D617D95200137B53D52D53D1
00002CB315ACEEEC94142D52D500
0000005DB731000259DA12D52300
0000000037BDEEEDA610002B1000
ENDCHAR
STARTCHAR R
ENCODING 82
SWIDTH 745 0
DWIDTH 24 0
BBX 22 25 1 0
BITMAP
684A3C1EEEEEEEEDB61000
684A3C000000000149D400
684A3C1EEEEEEEED933D40
684A3C00000000016D63D1
684A3C1EEEEEEEEC51D388
684A3C0000000003C5693C
684A3C00000000004A2C1E
684A3C00000000005A2C1E
684A3C0000000003C5693C
684A3C1EEEEEEEEC51D398
684A3C00000000016D53D1
684A3C1EEEEEEEED923D40
684A3C00000000014AD300
684A3C1EEEEEEEEDB51000
684A3C0000000000310000
684A3C000003B0D2870000
684A3C000000C4792D0000
684A3C0000005B1E1A5000
684A3C0000000D2973C000
684A3C0000000792D0C400
684A3C00000001E1A65B00
684A3C00000000974C0D20
684A3C000000002D0C4790
684A3C000000000A65B1E1
684A3C0000000004C0D397
ENDCHAR
STARTCHAR S
ENCODING 83
SWIDTH 660 0
DWIDTH 21 0
BBX 20 25 1 0
BITMAP
0000159CEEEDA6100000
0006ECDEEEEDDBD91000
00BBBD7310037D97D300
0AAAA15BDEDB41AA4D10
5C5B1CA41014BA0C5870
A5A5880000000A659250
D2C3A500000003500000
D1A56C10000000000000
B34C16E9400000000000
6908C316BEA510000000
0D404CB51159D9300000
02C7004AEB7205CA1000
0008C610037CC606D300
000017CB730029C34D10
000000026AD9304D2790
000000000004BB15B1E0
00000000000006B0E0D2
00004000000000E0E1C2
40A2A600000005C1D0D1
C3882D9410149D3983D0
6A1D616BDEDB618C1A60
0B71BC6210137DA18B00
01C9139CEEDC832AC100
0008D95200125AE70000
000016ADEEECA5100000
ENDCHAR
STARTCHAR T
ENCODING 84
SWIDTH 641 0
DWIDTH 21 0
BBX 21 25 0 0
BITMAP
AEEEEEEEEEEEEEEEEEEE30
0000000000000000000000
AEEEEEEEEEEEEEEEEEEE30
0000000000000000000000
AEEEEEEEEEEEEEEEEEEE30
0000000000000000000000
00000005A3B1D000000000
00000005A3B1D000000000
00000005A3B1D000000000
00000005A3B1D000000000
00000005A3B1D000000000
00000005A3B1D000000000
00000005A3B1D000000000
00000005A3B1D000000000
00000005A3B1D000000000
00000005A3B1D000000000
00000005A3B1D000000000
00000005A3B1D000000000
00000005A3B1D000000000
00000005A3B1D000000000
00000005A3B1D000000000
00000005A3B1D000000000
00000005A3B1D000000000
00000005A3B1D000000000
00000005A3B1D000000000
ENDCHAR
STARTCHAR U
ENCODING 85
SWIDTH 702 0
DWIDTH 22 0
BBX 20 25 1 0
BITMAP
684A3C000000005A3B1D
684A3C000000005A3B1D
684A3C000000005A3B1D
684A3C000000005A3B1D
684A3C000000005A3B1D
684A3C000000005A3B1D
684A3C000000005A3B1D
684A3C000000005A3B1D
684A3C000000005A3B1D
684A3C000000005A3B1D
684A3C000000005A3B1D
684A3C000000005A3B1D
684A3C000000005A3B1D
684A3C000000005A3B1D
684A3C000000005A3B1D
684A3C000000005A3B1D
693B1D00000000684A2C
4B1E0D20000000A5784A
1E1B47A0000003D1C387
0A65C1AA31026D46B0D2
03D19B16BDED825D2890
006B18D731025BC25D10
0008D228CDEDA508D200
00005D95100037DA1000
0000016ADEEEC8300000
ENDCHAR
STARTCHAR V
ENCODING 86
SWIDTH 758 0
DWIDTH 24 0
BBX 24 25 0 0
BITMAP
3C0E1B500000000001E0C397
0D3965A00000000006A2D0D2
0784C1E1000000000B5784C0
02D0D2A5000000001E0C3970
00C3875B000000006A2D0D20
00783C0E10000000B5784C00
002D0D2960000001E0C39600
000B4884B0000006A2D0D200
000693D0E100000B5784B000
0001E0C39700001E0C396000
0000B5784C00006A2D0D1000
00006A2D0D2000B4784B0000
00001E1C487001E0C3960000
00000A5793C00692D0D10000
000005A2E0D30B4784B00000
000001E1B4881E0C39600000
000000A6692D192D0D100000
0000004B1E0C31884B000000
0000000E1B5780D396000000
0000000965A2D1D0D1000000
00000004C1E1C444B0000000
00000000D2A5690960000000
00000000875B1E0D10000000
000000003C0E1B4700000000
000000000D3966A000000000
ENDCHAR
STARTCHAR W
ENCODING 87
SWIDTH 972 0
DWIDTH 31 0
BBX 31 25 0 0
BITMAP
3B1E0D200000087693C000000E0C2A50
0E1C396000000C39578000004B1E0E10
0B48769000001E0D2B400000875A2D00
0784B2D000005A2D0E100000B3966900
03C1E0D2000086693C000001E0C2A500
00E1C3960000C3A578400004B1E0E100
00A5875A0001E0D1B484000875A2D000
00684B1E0005A2D0E178000B39669000
002C0E0C30086693C04C001E0C2A5000
000D1B48700C2A57830E104B1D0E1000
000A5785B01D0D1B492B40875A2C0000
000693C1E04A2D0E196780C386690000
0002D0E1C386693C05A3C0E0C2A50000
0000D2A48762A57821E0E181D0E10000
000096784B20D1B490C3A515A3C00000
00005A3C1E02D0E1B486690866900000
00001D0E1B4694C0884A2D0C2A500000
00000D2A578757804C1E0D1B0E100000
0000096693C31B400E1C3A533C000000
000005A2D0E10E100B48769068000000
000001E0D2B44C000784B2D0A5000000
000000C39578680003C1E0D2C1000000
00000087693C240000E1B49660000000
0000004B2D0E100000A5785A00000000
0000001E0D2A500000694B1D00000000
ENDCHAR
STARTCHAR X
ENCODING 88
SWIDTH 712 0
DWIDTH 23 0
BBX 22 25 0 0
BITMAP
07A1E2880000000B64C0C4
00D46A1D3000005C0D47A0
004C0C46B00001D37A1E20
000A64D0C5000892E1A700
0002E1A73D102D1B74D000
0000891E2980B65C0C4000
00001D37A1D251D47A0000
000005C0C46B08A1E20000
000000B64D0C551A700000
0000002E1A73D14D000000
0000000892E19834000000
00000001D37A1E20000000
000000005C0D46B0000000
000000051B64C0C4000000
0000002D12D1A63D000000
000000A732892E19700000
000004C0C41D3791E20000
00000D46A145C1D37A0000
00007A1D2980B65C0C4000
0002E2973D103D1B64D000
000A73D0B5000882E1A700
004D0C46B00001D3892E20
00D46A1D2000006B1D37A0
07A1D2980000000C55C0D4
2E2973D100000003D1B64C
ENDCHAR
STARTCHAR Y
ENCODING 89
SWIDTH 769 0
DWIDTH 25 0
BBX 25 25 0 0
BITMAP
5C0C54D10000000004D1B63D10
0A82D299000000001D36B1D400
01D37B1D40000000A82E289000
004C0B64D1000005C1B64D1000
000982D29900001E37B1D40000
0001D36B1D4000A82E29900000
00004C0B64D106C0C64D100000
00000982D2990D37B1D4000000
000001D36B1D413E2990000000
0000004D1B64D1864D10000000
0000000982D28911D400000000
00000001D36B1D449000000000
000000004D1B63D10000000000
00000000031130310000000000
00000000037180900000000000
0000000004A2C1E00000000000
0000000004A2C1E00000000000
0000000004A2C1E00000000000
0000000004A2C1E00000000000
0000000004A2C1E00000000000
0000000004A2C1E00000000000
0000000004A2C1E00000000000
0000000004A2C1E00000000000
0000000004A2C1E00000000000
0000000004A2C1E00000000000
ENDCHAR
STARTCHAR Z
ENCODING 90
SWIDTH 708 0
DWIDTH 23 0
BBX 23 25 0 0
BITMAP
005EEEEEEEEEEE91D2982D10
000000000000000A73D1B600
005EEEEEEEEEE55C0C46B000
00000000000001D37A1D2000
005EEEEEEEEE1982D1A70000
0000000000004D1B54C00000
000000000000D46B1D300000
00000000000892D298000000
00000000003D1A73D1000000
0000000000C55C0C40000000
0000000006A1D37A00000000
000000002D2982D100000000
00000000B64D1B5000000000
00000005C1D46B0000000000
0000001D2892D20000000000
000000983D1A700000000000
000004D1C55C000000000000
00001D36A1D3000000000000
0000892D2980000000000000
0003D1B64D00000000000000
000C55C1D48EEEEEEEEE0000
007A1D289000000000000000
02D1983D1CEEEEEEEEEE0000
0B64D1C50000000000000000
6B1D36A3EEEEEEEEEEEE0000
ENDCHAR
STARTCHAR bracketleft
ENCODING 91
SWIDTH 320 0
DWIDTH 10 0
BBX 8 15 1 -1
BITMAP
684A5EE9
684A0000
684A0000
684A5EE9
684A0000
684A0000
684A0000
684A0000
684A0000
684A0000
684A0000
684A0000
684A5EE9
684A0000
684A5EE9
ENDCHAR
STARTCHAR backslash
ENCODING 92
SWIDTH 298 0
DWIDTH 10 0
BBX 8 13 1 0
BITMAP
D2960000
874B0000
3C0E1000
0D296000
0874B000
03C0E100
00D29600
00874B00
003D0E10
000D3960
000884B0
0003D0E1
0000D396
ENDCHAR
STARTCHAR bracketright
ENCODING 93
SWIDTH 320 0
DWIDTH 10 0
BBX 8 15 1 -1
BITMAP
6EE96859
0000785A
0000785A
6EE9785A
0000785A
0000785A
0000785A
0000785A
0000785A
0000785A
0000785A
0000785A
6EE9785A
0000785A
6EE96859
ENDCHAR
STARTCHAR asciicircum
ENCODING 94
SWIDTH 309 0
DWIDTH 10 0
BBX 8 6 1 7
BITMAP
00021000
000B5000
005C2300
01D34C00
08941B60
2E1882D1
ENDCHAR
STARTCHAR underscore
ENCODING 95
SWIDTH 472 0
DWIDTH 15 0
BBX 13 3 1 0
BITMAP
6EEEEEEEEEEE70
00000000000000
6EEEEEEEEEEE70
ENDCHAR
STARTCHAR grave
ENCODING 96
SWIDTH 195 0
DWIDTH 6 0
BBX 4 3 1 15
BITMAP
2D10
07A0
00C5
ENDCHAR
STARTCHAR a
ENCODING 97
SWIDTH 414 0
DWIDTH 13 0
BBX 13 13 0 0
BITMAP
00003D0E600000
0000875DC00000
0000D2A5D20000
0004B1F5780000
000A66DA2D0000
001E1B3D1C3000
005A2C09669000
00B57703B1E000
01E0CEEEF2B500
0693C000875A00
0C4890005C1E10
2D0DEEEEEF2A60
884C00000984B0
ENDCHAR
STARTCHAR b
ENCODING 98
SWIDTH 423 0
DWIDTH 14 0
BBX 12 13 1 0
BITMAP
B49FEEEED600
B49500003C70
B49FEEEE82E1
B4950001E1C3
B4950000D1B3
B49FEEEEF8E1
B495000029D0
B49FEEEEB1B5
B4950000A678
B4950000A678
B49FEEEEB1B5
B495000019C0
B49FEEEEE910
ENDCHAR
STARTCHAR c
ENCODING 99
SWIDTH 446 0
DWIDTH 14 0
BBX 13 13 1 0
BITMAP
00039DEEC81000
008D720027D600
08B16CEEB41B10
4C1AB3104C5000
A56A0000010000
E1C30000000000
E0D10000000000
E1C30000000000
A56A0000010000
4C1AB4114C5000
08B16CEEB42B10
008D720027D600
00039DEEC81000
ENDCHAR
STARTCHAR d
ENCODING 100
SWIDTH 450 0
DWIDTH 14 0
BBX 13 13 1 0
BITMAP
B49FEEDB610000
B4950014AD3000
B49FEEDA24D200
B4950027D46B00
B49500003D0D20
B49500000B3A50
B49500000A5860
B49500000B3A50
B49500003D0D20
B4950027D36B00
B49FEED924D200
B49500149D3000
B49FEEEB610000
ENDCHAR
STARTCHAR e
ENCODING 101
SWIDTH 363 0
DWIDTH 12 0
BBX 11 13 1 0
BITMAP
B49FEEEEEE10
B49500000000
B49FEEEEEE10
B49500000000
B49500000000
B49FEEEEE000
B49500000000
B49FEEEEE000
B49500000000
B49500000000
B49FEEEEEE10
B49500000000
B49FEEEEEE10
ENDCHAR
STARTCHAR f
ENCODING 102
SWIDTH 365 0
DWIDTH 12 0
BBX 11 13 1 0
BITMAP
B49FEEEEEE10
B49500000000
B49FEEEEEE10
B49500000000
B49500000000
B49FEEEEE000
B49500000000
B49FEEEEE000
B49500000000
B49500000000
B49500000000
B49500000000
B49500000000
ENDCHAR
STARTCHAR g
ENCODING 103
SWIDTH 483 0
DWIDTH 15 0
BBX 14 13 1 0
BITMAP
00039DEEC72000
008D720027D600
08B16CEEB51C50
4C1AB3103A8100
A56A0000000000
E1C30007EEEEE7
E0D10000000000
E1C30007EEFEF7
A56A000004D1C4
4C1AB4116D35C0
08B16CEDA24E30
008D720039D300
00039DEEC71000
ENDCHAR
STARTCHAR h
ENCODING 104
SWIDTH 428 0
DWIDTH 14 0
BBX 12 13 1 0
BITMAP
B4950000A486
B4950000A486
B4950000A486
B4950000A486
B4950000A486
B49FEEEEF486
B4950000A486
B49FEEEEF486
B4950000A486
B4950000A486
B4950000A486
B4950000A486
B4950000A486
ENDCHAR
STARTCHAR i
ENCODING 105
SWIDTH 176 0
DWIDTH 6 0
BBX 4 13 1 0
BITMAP
B495
B495
B495
B495
B495
B495
B495
B495
B495
B495
B495
B495
B495
ENDCHAR
STARTCHAR j
ENCODING 106
SWIDTH 390 0
DWIDTH 12 0
BBX 11 13 1 0
BITMAP
0000000D1C30
0000000D1C30
0000000D1C30
0000000D1C30
0000000D1C30
0000000D1C30
0000000D1C30
0000000D1C30
E0D2000E0C20
C38A118A1E00
6B08DD919800
0AB4003AB000
005BEEC70000
ENDCHAR
STARTCHAR k
ENCODING 107
SWIDTH 381 0
DWIDTH 12 0
BBX 11 13 1 0
BITMAP
B495006B1D30
B49501D28900
B4950892E100
B4952E1A7000
B495A73D0000
B497F1C40000
B4959DB00000
B49B1B800000
B49E91D40000
B496C63E2000
B4952D36D100
B49504D19A00
B495007B0B70
ENDCHAR
STARTCHAR l
ENCODING 108
SWIDTH 330 0
DWIDTH 11 0
BBX 10 13 1 0
BITMAP
B495000000
B495000000
B495000000
B495000000
B495000000
B495000000
B495000000
B495000000
B495000000
B495000000
B49FEEEEE1
B495000000
B49FEEEEE1
ENDCHAR
STARTCHAR m
ENCODING 109
SWIDTH 501 0
DWIDTH 16 0
BBX 14 13 1 0
BITMAP
B49B000000AA3B
B49E800007EA3B
B497D4004D6A3B
B4973E22E36A3B
B49E36CC63EA3B
B49AD19D1D9A3B
B4957B0BD85A3B
B4950A81905A3B
B49501D5005A3B
B4950023005A3B
B4950000005A3B
B4950000005A3B
B4950000005A3B
ENDCHAR
STARTCHAR n
ENCODING 110
SWIDTH 444 0
DWIDTH 14 0
BBX 12 13 1 0
BITMAP
B49B00002C0E
B49F60002C0E
B498E2002C0E
B4966C002C0E
B49D1A802C0E
B49DA1D42C0E
B496C64D3C0E
B4952D28CC0E
B49506C0CC0E
B49500A83C0E
B495001D6C0E
B4950003EC0E
B49500008C0E
ENDCHAR
STARTCHAR o
ENCODING 111
SWIDTH 494 0
DWIDTH 16 0
BBX 14 13 1 0
BITMAP
00039DEEC72000
008D720038D500
08B16CEEB42C50
4C1AB3115D72D1
A56A000001C387
E1C3000000694B
E0D10000004B2C
E1C3000000694B
A56A000001D387
4C1AB4115D72D1
08B16CEEB42C50
008D720028D500
00039DEEC82000
ENDCHAR
STARTCHAR p
ENCODING 112
SWIDTH 412 0
DWIDTH 13 0
BBX 12 13 1 0
BITMAP
B49FEEEED600
B49500003C70
B49FEEEE72E0
B4950001E1C3
B4950001E0C3
B49FEEEE72E0
B49500004C60
B49FEEEEC500
B49500000000
B49500000000
B49500000000
B49500000000
B49500000000
ENDCHAR
STARTCHAR q
ENCODING 113
SWIDTH 494 0
DWIDTH 16 0
BBX 14 13 1 0
BITMAP
00039DEEC72000
008D720038D500
08B16CEEB42C50
4C1AB3115D72D1
A56A000001D387
E1C3000000694B
E0D10000004B2C
E1C300000B994B
A56A000243E688
4C1AB413E53DE2
08B16CEEBD52D5
008D720029F625
00039DEEC73D20
ENDCHAR
STARTCHAR r
ENCODING 114
SWIDTH 412 0
DWIDTH 13 0
BBX 12 13 1 0
BITMAP
B49FEEEED600
B49500003C70
B49FEEEE72E0
B4950001E1C3
B4950001E0C2
B49FEEEE72D0
B49500004C60
B49FEFFEE500
B49504C0D200
B49500C38800
B495006A2D00
B495001E1A50
B495000974C0
ENDCHAR
STARTCHAR s
ENCODING 115
SWIDTH 379 0
DWIDTH 12 0
BBX 11 13 1 0
BITMAP
017CEEC71000
1C930028D200
A72BEEB36B00
E1B600490700
D29A40000000
7A15ADB50000
07D83038C200
0016BD915C00
0000017C0D10
8095003E0D20
B63BEEB44D00
2D820028E300
017CEED92000
ENDCHAR
STARTCHAR t
ENCODING 116
SWIDTH 349 0
DWIDTH 11 0
BBX 11 13 0 0
BITMAP
AEEEEEEEEEC0
000000000000
AEEEFEFEEEC0
0000E0D20000
0000E0D20000
0000E0D20000
0000E0D20000
0000E0D20000
0000E0D20000
0000E0D20000
0000E0D20000
0000E0D20000
0000E0D20000
ENDCHAR
STARTCHAR u
ENCODING 117
SWIDTH 400 0
DWIDTH 13 0
BBX 11 13 1 0
BITMAP
B49500086780
B49500086780
B49500086780
B49500086780
B49500086780
B49500086780
B49500086780
B49500086780
A487000A5770
773D304D1B40
2D25CEB34D00
05D51017D300
003AEED91000
ENDCHAR
STARTCHAR v
ENCODING 118
SWIDTH 394 0
DWIDTH 13 0
BBX 13 13 0 0
BITMAP
884B00002D0D20
3D0E1000784C00
0D396000C39700
0884B002D0D200
03D0E10784C000
00D3960C397000
00884B2D0D2000
003D0E884C0000
000D39F3970000
000884E0D20000
0003D0E5C00000
0000D39E700000
0000784F200000
ENDCHAR
STARTCHAR w
ENCODING 119
SWIDTH 521 0
DWIDTH 17 0
BBX 17 13 0 0
BITMAP
8769001E0D200E1C30
4B2D004B2F003C1E00
1E0D20876F30784B00
0C3960C3AD70B48700
0875A1E0D6B1E0C300
04B1D5A2D0E4B1E000
00E1CC66F1BC75A000
00B48F2AE57F396000
00784D0E793E0D2000
003C1E3C2D0E3D0000
000E1BA80D2AB90000
000A58F40966F50000
000694F005A2F10000
ENDCHAR
STARTCHAR x
ENCODING 120
SWIDTH 369 0
DWIDTH 12 0
BBX 12 13 0 0
BITMAP
2E1A700973D1
0892E12D1B60
01E389A64C00
006B1DD0C400
000D46B5B000
0005D0CE3000
0001F64D0000
0009AE1B6000
002D1C82D100
00B64DE29800
04C0C47A1E20
0C46B01D37A0
6B1E3005C0D3
ENDCHAR
STARTCHAR y
ENCODING 121
SWIDTH 422 0
DWIDTH 14 0
BBX 13 13 0 0
BITMAP
6C0C60001D45D0
0B73E1008A1D40
02E28A03E19900
007B0D4C63E100
000C54EC0D5000
0003E1997B0000
0000991EE20000
00001302200000
00000C3A400000
00000C3A400000
00000C3A400000
00000C3A400000
00000C3A400000
ENDCHAR
STARTCHAR z
ENCODING 122
SWIDTH 409 0
DWIDTH 13 0
BBX 11 13 1 0
BITMAP
AEEEEEEEEEC0
000000000000
AEEEEEEFEFC0
000001C72D50
00000B81C700
0000AA1B8000
0008B0AA0000
007C19B00000
05D17C100000
4D26D1000000
AEEFEEEEEEC0
000000000000
AEEEEEEEEEC0
ENDCHAR
STARTCHAR braceleft
ENCODING 123
SWIDTH 443 0
DWIDTH 14 0
BBX 12 15 1 -1
BITMAP
000077596EE8
000078590000
000078590000
000078596EE8
000078590000
000078590000
6EE978590000
000078590000
6EE978590000
000078590000
000078590000
000078590000
000078596EE8
000078590000
000077596EE8
ENDCHAR
STARTCHAR bar
ENCODING 124
SWIDTH 196 0
DWIDTH 6 0
BBX 4 15 1 -1
BITMAP
3425
684A
684A
684A
684A
684A
684A
684A
684A
684A
684A
684A
684A
684A
684A
ENDCHAR
STARTCHAR braceright
ENCODING 125
SWIDTH 506 0
DWIDTH 16 0
BBX 12 15 3 -1
BITMAP
6EE9684A0000
0000684A0000
0000684A0000
6EE9684A0000
0000684A0000
0000684A0000
0000684A6EE8
0000684A0000
0000684A6EE8
0000684A0000
0000684A0000
0000684A0000
6EE9684A0000
0000684A0000
6EE9684A0000
ENDCHAR
STARTCHAR asciitilde
ENCODING 126
SWIDTH 450 0
DWIDTH 14 0
BBX 13 4 1 4
BITMAP
3ADEEB72013810
7510149CEEB600
3ADEEB72013810
7510149CEEB600
ENDCHAR
STARTCHAR uni00A0
ENCODING 160
SWIDTH 280 0
DWIDTH 9 0
BBX 1 1 0 0
BITMAP
00
ENDCHAR
STARTCHAR exclamdown
ENCODING 161
SWIDTH 196 0
DWIDTH 6 0
BBX 4 13 1 -3
BITMAP
5749
684A
684A
0000
684A
684A
684A
684A
684A
684A
684A
684A
684A
ENDCHAR
STARTCHAR cent
ENCODING 162
SWIDTH 305 0
DWIDTH 10 0
BBX 10 15 0 -1
BITMAP
0004B2C000
0004A2C000
0000000000
004AEEEB60
07DADED771
3E6E405800
87B5000000
A5D2000000
87B5000000
3E5E415800
07DADED881
004ADEDB50
0000000000
0004A2C000
0004B2C000
ENDCHAR
STARTCHAR sterling
ENCODING 163
SWIDTH 408 0
DWIDTH 13 0
BBX 13 13 0 0
BITMAP
028DEEC7100000
1D820028D20000
4B1BEEC2790000
13140032120000
CEEEEEEEE20000
00000000000000
CEEEEEEEE20000
00000000000000
03C2D200000000
00000000000000
CEEEEEEEEEEE20
00000000000000
CEEEEEEEEEEE20
ENDCHAR
STARTCHAR currency
ENCODING 164
SWIDTH 401 0
DWIDTH 13 0
BBX 11 11 1 0
BITMAP
04A00001B200
40A300058140
A906DEB30C70
036CAE8D2400
00C3D6887000
00C37E387000
016C305D2100
6B06CEB30D40
816200045370
04C10002D200
001000001000
ENDCHAR
STARTCHAR yen
ENCODING 165
SWIDTH 423 0
DWIDTH 14 0
BBX 14 13 0 0
BITMAP
5C0B70000D54D1
0A72E2008A1D40
02E27A02E28A00
007B0C5B73E100
000C63EC0C6000
0003E1997B0000
00008A1DE20000
00000302200000
03EE1B3A58EC00
00000B3A500000
03EE1B3A58EC00
00000B3A500000
00000B3A500000
ENDCHAR
STARTCHAR brokenbar
ENCODING 166
SWIDTH 196 0
DWIDTH 6 0
BBX 4 14 1 0
BITMAP
684A
684A
684A
684A
684A
684A
0000
0000
684A
684A
684A
684A
684A
684A
ENDCHAR
STARTCHAR section
ENCODING 167
SWIDTH 322 0
DWIDTH 10 0
BBX 9 15 1 -2
BITMAP
04BDED8100
5DBEEC8D00
C4D1055510
C1AB720000
69026AA200
35B9513C10
D2627C4940
D2D5147950
963ADA4510
19B624C700
0017BB2D10
4170096A30
B48EEA2D10
3D5113B900
03ADEC6000
ENDCHAR
STARTCHAR dieresis
ENCODING 168
SWIDTH 287 0
DWIDTH 9 0
BBX 7 3 1 15
BITMAP
01000100
4F806F60
3E705E50
ENDCHAR
STARTCHAR copyright
ENCODING 169
SWIDTH 493 0
DWIDTH 16 0
BBX 14 14 1 0
BITMAP
00028CEEB61000
006E820139D300
06C20000004D30
2E2000000005D0
980019ED9100B5
D200AA11880069
F002E00000004B
F003B00000004B
D202E000000069
9800AA117700C5
2E2019DE9105D0
06D20000004E30
006E830139D300
00028CEDB61000
ENDCHAR
STARTCHAR ordfeminine
ENCODING 170
SWIDTH 331 0
DWIDTH 11 0
BBX 8 6 1 7
BITMAP
0085BA20
00C6E570
048B86C0
0A5ECB84
1C8CBD59
24500336
ENDCHAR
STARTCHAR guillemotleft
ENCODING 171
SWIDTH 298 0
DWIDTH 10 0
BBX 8 7 1 3
BITMAP
019401A2
3D914D70
35234332
30A430B2
AA10C800
08D11AC0
00420060
ENDCHAR
STARTCHAR logicalnot
ENCODING 172
SWIDTH 420 0
DWIDTH 13 0
BBX 12 7 1 1
BITMAP
AEEEEEEEEEE2
000000000000
AEEEEEEEEEE2
000000000000
00000000C0B1
00000000E0D1
00000000E0D1
ENDCHAR
STARTCHAR uni00AD
ENCODING 173
SWIDTH 326 0
DWIDTH 10 0
BBX 8 3 1 5
BITMAP
6EEEEEEC
00000000
6EEEEEEC
ENDCHAR
STARTCHAR registered
ENCODING 174
SWIDTH 493 0
DWIDTH 16 0
BBX 14 14 1 0
BITMAP
00028CEEB61000
006E820139D300
06C20000004D30
2E2000000005D0
9800A6EED200B5
D200A400690069
F000A40079004B
F000A6EFE3004B
D200A403D00069
9800A400B500C5
2E2000000005D0
06D20000004E30
006E830139D300
00028CEDB61000
ENDCHAR
STARTCHAR macron
ENCODING 175
SWIDTH 331 0
DWIDTH 11 0
BBX 8 1 1 15
BITMAP
6EEEEEEE
ENDCHAR
STARTCHAR degree
ENCODING 176
SWIDTH 298 0
DWIDTH 10 0
BBX 7 7 1 7
BITMAP
02AED700
0C712C60
4A2D92C0
6776D0D0
4A2D92C0
0C712C50
02AED600
ENDCHAR
STARTCHAR plusminus
ENCODING 177
SWIDTH 418 0
DWIDTH 13 0
BBX 12 13 1 0
BITMAP
0000D2B30000
0000D2B30000
0000D2B30000
5EE0D2B39EA0
0000D2B30000
5EE0D2B39EA0
0000D2B30000
0000D2B30000
0000D2B30000
000000000000
AEEEEEEEEEE1
000000000000
AEEEEEEEEEE1
ENDCHAR
STARTCHAR uni00B2
ENCODING 178
SWIDTH 233 0
DWIDTH 7 0
BBX 5 6 1 7
BITMAP
1BFF40
2358A0
02B680
073700
5CCC90
5CCC90
ENDCHAR
STARTCHAR uni00B3
ENCODING 179
SWIDTH 228 0
DWIDTH 7 0
BBX 5 6 1 7
BITMAP
2CFF30
112490
005A20
114790
48C690
09BB20
ENDCHAR
STARTCHAR acute
ENCODING 180
SWIDTH 195 0
DWIDTH 6 0
BBX 4 3 1 15
BITMAP
00C5
07A0
2D10
ENDCHAR
STARTCHAR uni00B5
ENCODING 181
SWIDTH 506 0
DWIDTH 16 0
BBX 15 17 1 -4
BITMAP
684A0004B2D00000
684A0004B2D00000
684A0004B2D00000
684A0004B2D00000
684A0004B2D00000
684A0004B2D00000
684A0004B2D00000
684A0004B2D00000
684A0005A3C00000
684A202C56921000
684A8ED61D3AE400
684A1015D7510310
684A9EEA418DEC30
684A000000000000
684A000000000000
684A000000000000
3425000000000000
ENDCHAR
STARTCHAR paragraph
ENCODING 182
SWIDTH 435 0
DWIDTH 14 0
BBX 13 13 0 0
BITMAP
005CEEEEEEEE40
06C30000000000
0E27EEEEEEEE40
2D0E1000000000
2D0E105A4A0A50
0E27EB5A4A0A50
06D4005A4A0A50
005CEB5A4A0A50
0000005A4A0A50
0000005A4A0A50
0000005A4A0A50
0000005A4A0A50
0000005A4A0A50
ENDCHAR
STARTCHAR periodcentered
ENCODING 183
SWIDTH 176 0
DWIDTH 6 0
BBX 4 3 1 5
BITMAP
9385
B495
B495
ENDCHAR
STARTCHAR cedilla
ENCODING 184
SWIDTH 261 0
DWIDTH 8 0
BBX 6 6 1 -5
BITMAP
005500
01E200
09FEC3
03306A
151189
19DEA1
ENDCHAR
STARTCHAR uni00B9
ENCODING 185
SWIDTH 218 0
DWIDTH 7 0
BBX 5 6 1 7
BITMAP
5C7760
5C7760
006760
006760
006760
006760
ENDCHAR
STARTCHAR ordmasculine
ENCODING 186
SWIDTH 335 0
DWIDTH 11 0
BBX 9 7 1 7
BITMAP
006BCA4000
0AAAB9C600
3C93075E00
69A0027D20
4B83075E00
0B8AB8A700
008CCB5000
ENDCHAR
STARTCHAR guillemotright
ENCODING 187
SWIDTH 298 0
DWIDTH 10 0
BBX 8 7 1 3
BITMAP
8500A400
2CA14D80
51615160
8612A412
03C504D3
5D506D30
42005100
ENDCHAR
STARTCHAR onequarter
ENCODING 188
SWIDTH 429 0
DWIDTH 14 0
BBX 13 13 0 0
BITMAP
1E79A000085900
1E79A000299200
0019A000958000
0019A0038A1000
0019A00A570000
0019A047A00000
000000A6500000
0000056A057900
00000A740B9200
000075A0778000
0001A830CE79A0
000859000019A0
00299200CE79A0
ENDCHAR
STARTCHAR onehalf
ENCODING 189
SWIDTH 437 0
DWIDTH 14 0
BBX 13 13 0 0
BITMAP
1E79A0000A7500
1E79A00066A000
0019A001A83000
0019A008590000
0019A029920000
0019A095800000
0000038A16ED40
00000A571BDBC0
000047A0135990
0000B65002A580
00066A00062600
001B74004EEED0
0075A0004EEED0
ENDCHAR
STARTCHAR threequarters
ENCODING 190
SWIDTH 409 0
DWIDTH 13 0
BBX 12 13 1 0
BITMAP
5DE700003310
A88A00066A00
01D5001A8300
006C00859000
33A9029A1000
BBCB0A570000
4DD447A00000
0000A751A910
00075A087700
001A932AA100
0095807EBA82
038A107EBA82
0A6600000A82
ENDCHAR
STARTCHAR questiondown
ENCODING 191
SWIDTH 346 0
DWIDTH 11 0
BBX 9 13 1 -2
BITMAP
000E0D1000
000C0B1000
0001010000
000F0D2000
000E0E1000
008A1E0000
08B1890000
2D17C10000
592D100000
693C193650
3D1AEB1C40
0AB202AB00
008DED8100
ENDCHAR
STARTCHAR Agrave
ENCODING 192
SWIDTH 798 0
DWIDTH 26 0
BBX 25 34 0 0
BITMAP
00000005417000000000000000
00000003D1B600000000000000
00000000982E10000000000000
000000001E2890000000000000
0000000006B1D3000000000000
0000000000C55C000000000000
00000000003D1B600000000000
00000000000000000000000000
00000000000000000000000000
0000000004B1E1B40000000000
000000000966A2D11000000000
000000001E1C47857000000000
000000005A2D0D23C000000000
00000000B4884C10D300000000
00000002D0D396757800000000
0000000784C1E15A2E00000000
0000000D2965A10D1B50000000
0000003C1E1B483975A0000000
000000966A2D0793C0E1000000
000000E1B57801E0C397000000
000005A2E0D300A5793C000000
00000B4783C0005B1E0D300000
00001D0D3960000E2A57900000
0000783C0E10000975A1E00000
0000C3975A000003D0E1B50000
0003C0E1B57EEEE1C3975A0000
000975A1E0000000793C0E1000
000E1B5784EEEEEC1E0C397000
005A1E0C300000000A5793C000
00A5793C1EEEEEEE95B1E0C300
01E0C3970000000000E2A57900
0693D0E10000000000875B1E00
0C3975A000000000003D0E2A50
3D0E2A5000000000000C3875B0
ENDCHAR
STARTCHAR Aacute
ENCODING 193
SWIDTH 798 0
DWIDTH 26 0
BBX 25 34 0 0
BITMAP
00000000000000072350000000
000000000000005C0D40000000
00000000000001D37A00000000
0000000000000892E200000000
0000000000002E1A7000000000
000000000000B64D0000000000
000000000005C0C40000000000
00000000000000000000000000
00000000000000000000000000
0000000004B1E1B40000000000
000000000966A2D11000000000
000000001E1C47857000000000
000000005A2D0D23C000000000
00000000B4884C10D300000000
00000002D0D396757800000000
0000000784C1E15A2E00000000
0000000D2965A10D1B50000000
0000003C1E1B483975A0000000
000000966A2D0793C0E1000000
000000E1B57801E0C397000000
000005A2E0D300A5793C000000
00000B4783C0005B1E0D300000
00001D0D3960000E2A57900000
0000783C0E10000975A1E00000
0000C3975A000003D0E1B50000
0003C0E1B57EEEE1C3975A0000
000975A1E0000000793C0E1000
000E1B5784EEEEEC1E0C397000
005A1E0C300000000A5793C000
00A5793C1EEEEEEE95B1E0C300
01E0C3970000000000E2A57900
0693D0E10000000000875B1E00
0C3975A000000000003D0E2A50
3D0E2A5000000000000C3875B0
ENDCHAR
STARTCHAR Acircumflex
ENCODING 194
SWIDTH 798 0
DWIDTH 26 0
BBX 25 34 0 0
BITMAP
00000000006317100000000000
0000000005D1A8110000000000
000000002E36C05B0000000000
00000000C63E251A7000000000
00000008A1D50991D400000000
0000004D1A9000C53D10000000
000002E36C00002E27B0000000
00000000000000000000000000
00000000000000000000000000
0000000004B1E1B40000000000
000000000966A2D11000000000
000000001E1C47857000000000
000000005A2D0D23C000000000
00000000B4884C10D300000000
00000002D0D396757800000000
0000000784C1E15A2E00000000
0000000D2965A10D1B50000000
0000003C1E1B483975A0000000
000000966A2D0793C0E1000000
000000E1B57801E0C397000000
000005A2E0D300A5793C000000
00000B4783C0005B1E0D300000
00001D0D3960000E2A57900000
0000783C0E10000975A1E00000
0000C3975A000003D0E1B50000
0003C0E1B57EEEE1C3975A0000
000975A1E0000000793C0E1000
000E1B5784EEEEEC1E0C397000
005A1E0C300000000A5793C000
00A5793C1EEEEEEE95B1E0C300
01E0C3970000000000E2A57900
0693D0E10000000000875B1E00
0C3975A000000000003D0E2A50
3D0E2A5000000000000C3875B0
ENDCHAR
STARTCHAR Atilde
ENCODING 195
SWIDTH 798 0
DWIDTH 26 0
BBX 25 31 0 0
BITMAP
000000019EE9100002A0000000
0000000AA118C20006A0000000
0000001E10006D404D40000000
00000039000004CEC500000000
00000000000000000000000000
00000000000000000000000000
0000000004B1E1B40000000000
000000000966A2D11000000000
000000001E1C47857000000000
000000005A2D0D23C000000000
00000000B4884C10D300000000
00000002D0D396757800000000
0000000784C1E15A2E00000000
0000000D2965A10D1B50000000
0000003C1E1B483975A0000000
000000966A2D0793C0E1000000
000000E1B57801E0C397000000
000005A2E0D300A5793C000000
00000B4783C0005B1E0D300000
00001D0D3960000E2A57900000
0000783C0E10000975A1E00000
0000C3975A000003D0E1B50000
0003C0E1B57EEEE1C3975A0000
000975A1E0000000793C0E1000
000E1B5784EEEEEC1E0C397000
005A1E0C300000000A5793C000
00A5793C1EEEEEEE95B1E0C300
01E0C3970000000000E2A57900
0693D0E10000000000875B1E00
0C3975A000000000003D0E2A50
3D0E2A5000000000000C3875B0
ENDCHAR
STARTCHAR Adieresis
ENCODING 196
SWIDTH 798 0
DWIDTH 26 0
BBX 25 34 0 0
BITMAP
0000004CEC400008DEA2000000
000003D303D3008A117C000000
00000870007800D1000C300000
00000870007800D1000C300000
000003D404D3008B217C000000
0000004CEC400008DEA1000000
00000000000000000000000000
00000000000000000000000000
00000000000000000000000000
0000000004B1E1B40000000000
000000000966A2D11000000000
000000001E1C47857000000000
000000005A2D0D23C000000000
00000000B4884C10D300000000
00000002D0D396757800000000
0000000784C1E15A2E00000000
0000000D2965A10D1B50000000
0000003C1E1B483975A0000000
000000966A2D0793C0E1000000
000000E1B57801E0C397000000
000005A2E0D300A5793C000000
00000B4783C0005B1E0D300000
00001D0D3960000E2A57900000
0000783C0E10000975A1E00000
0000C3975A000003D0E1B50000
0003C0E1B57EEEE1C3975A0000
000975A1E0000000793C0E1000
000E1B5784EEEEEC1E0C397000
005A1E0C300000000A5793C000
00A5793C1EEEEEEE95B1E0C300
01E0C3970000000000E2A57900
0693D0E10000000000875B1E00
0C3975A000000000003D0E2A50
3D0E2A5000000000000C3875B0
ENDCHAR
STARTCHAR Aring
ENCODING 197
SWIDTH 798 0
DWIDTH 26 0
BBX 25 34 0 0
BITMAP
00000000002AED700000000000
0000000001D612B80000000000
0000000006A0001E0000000000
000000000880000D1000000000
0000000006A0001E0000000000
0000000001D712B70000000000
00000000002AED700000000000
00000000000000000000000000
00000000000000000000000000
0000000004B1E1B40000000000
000000000966A2D11000000000
000000001E1C47857000000000
000000005A2D0D23C000000000
00000000B4884C10D300000000
00000002D0D396757800000000
0000000784C1E15A2E00000000
0000000D2965A10D1B50000000
0000003C1E1B483975A0000000
000000966A2D0793C0E1000000
000000E1B57801E0C397000000
000005A2E0D300A5793C000000
00000B4783C0005B1E0D300000
00001D0D3960000E2A57900000
0000783C0E10000975A1E00000
0000C3975A000003D0E1B50000
0003C0E1B57EEEE1C3975A0000
000975A1E0000000793C0E1000
000E1B5784EEEEEC1E0C397000
005A1E0C300000000A5793C000
00A5793C1EEEEEEE95B1E0C300
01E0C3970000000000E2A57900
0693D0E10000000000875B1E00
0C3975A000000000003D0E2A50
3D0E2A5000000000000C3875B0
ENDCHAR
STARTCHAR AE
ENCODING 198
SWIDTH 1078 0
DWIDTH 35 0
BBX 34 25 0 0
BITMAP
00000000000003C1E0E0CEEEEEEEEEEEE8
00000000000001E0E1C200000000000000
00000000000070E0C2A48EEEEEEEEEEEE8
000000000002D0C2B48600000000000000
00000000000970A496784EEEEEEEEEEEE8
00000000002D1296785A00000000000000
0000000000A656785A3B00000000000000
0000000003D0C4593B1D00000000000000
000000000B55B03B1D0E00000000000000
000000003C0D341D0E0D20000000000000
00000000B56A1C0E0D2B49EEEEEEEEEA00
00000004C0D3880D2B4960000000000000
0000000C47A2D10B495775EEEEEEEEEA00
0000005B1E297009577590000000000000
000000D3792D10077694B1EEEEEEEEEA00
000006B1E2A6000594B2D0000000000000
00000D3882D00004B2D0E0000000000000
00006A1E1A67EEB2D0E0D1000000000000
0001D2983D000000E0D1B3000000000000
000792E1B58EEEE0D1B3A5000000000000
001E2974C0000000B3A5875EEEEEEEEEE8
00882D1C59EEEEE4958769000000000000
01E1A64C0000000087694B2EEEEEEEEEE8
0983D0C400000000694A2C000000000000
2E1A65B0000000004B2C0E0DEEEEEEEEE8
ENDCHAR
STARTCHAR Ccedilla
ENCODING 199
SWIDTH 776 0
DWIDTH 25 0
BBX 23 32 1 -7
BITMAP
0000000037BDEEEDB8510000
0000005CDDDEEEEDCAAE9200
00002CCBD94200137BD55D70
0003D8D8149CEEDB714C9110
002D6D42CC6200148E818100
01D6D44D6000000001A90000
079882D30000000000010000
1E3E1B600000000000000000
5A593D000000000000000000
A5A578000000000000000000
D2C2A5000000000000000000
E0D1C3000000000000000000
E0D1C3000000000000000000
E0C2A5000000000000000000
D2A578000000000000000000
A5593D000000000000000000
5A1E1B700000000000000000
1E2891D30000000000010000
0791C44D6000000001A80000
01D52D42CC6200148D718100
002D32C8149CEEDB714C9110
0003D617D95200137BC51B80
00002CB315ACEEDC8417D700
0000005DB731001259D92000
0000000037BFFEECA5100000
00000000004E100000000000
0000000000C6000000000000
0000000006FDEC4000000000
000000000A6104D200000000
00000000000000A500000000
00000000671015D100000000
0000000018DEDA3000000000
ENDCHAR
STARTCHAR Egrave
ENCODING 200
SWIDTH 677 0
DWIDTH 22 0
BBX 20 34 1 0
BITMAP
00000001705300000000
00000000B64D00000000
000000002E1A70000000
000000000891E2000000
0000000001D37A000000
00000000005C0C400000
00000000000B64D00000
00000000000000000000
00000000000000000000
684A3C1EEEEEEEEEEEEA
684A3C00000000000000
684A3C1EEEEEEEEEEEEA
684A3C00000000000000
684A3C1EEEEEEEEEEEEA
684A3C00000000000000
684A3C00000000000000
684A3C00000000000000
684A3C00000000000000
684A3C00000000000000
684A3C1EEEEEEEEEED00
684A3C00000000000000
684A3C1EEEEEEEEEED00
684A3C00000000000000
684A3C1EEEEEEEEEED00
684A3C00000000000000
684A3C00000000000000
684A3C00000000000000
684A3C00000000000000
684A3C00000000000000
684A3C1EEEEEEEEEEEEA
684A3C00000000000000
684A3C1EEEEEEEEEEEEA
684A3C00000000000000
684A3C1EEEEEEEEEEEEA
ENDCHAR
STARTCHAR Eacute
ENCODING 201
SWIDTH 677 0
DWIDTH 22 0
BBX 20 34 1 0
BITMAP
00000000000532700000
00000000003D1A600000
0000000000B64C000000
0000000005C0D4000000
000000001D37A0000000
00000000892E10000000
00000002D1A700000000
00000000000000000000
00000000000000000000
684A3C1EEEEEEEEEEEEA
684A3C00000000000000
684A3C1EEEEEEEEEEEEA
684A3C00000000000000
684A3C1EEEEEEEEEEEEA
684A3C00000000000000
684A3C00000000000000
684A3C00000000000000
684A3C00000000000000
684A3C00000000000000
684A3C1EEEEEEEEEED00
684A3C00000000000000
684A3C1EEEEEEEEEED00
684A3C00000000000000
684A3C1EEEEEEEEEED00
684A3C00000000000000
684A3C00000000000000
684A3C00000000000000
684A3C00000000000000
684A3C00000000000000
684A3C1EEEEEEEEEEEEA
684A3C00000000000000
684A3C1EEEEEEEEEEEEA
684A3C00000000000000
684A3C1EEEEEEEEEEEEA
ENDCHAR
STARTCHAR Ecircumflex
ENCODING 202
SWIDTH 677 0
DWIDTH 22 0
BBX 20 34 1 0
BITMAP
00000000171360000000
00000000A81D32000000
00000006C0B70B600000
0000003E28B052D30000
000001D54D11D45D1000
00000A91D4003D18A000
00006C0B700007B0C600
00000000000000000000
00000000000000000000
684A3C1EEEEEEEEEEEEA
684A3C00000000000000
684A3C1EEEEEEEEEEEEA
684A3C00000000000000
684A3C1EEEEEEEEEEEEA
684A3C00000000000000
684A3C00000000000000
684A3C00000000000000
684A3C00000000000000
684A3C00000000000000
684A3C1EEEEEEEEEED00
684A3C00000000000000
684A3C1EEEEEEEEEED00
684A3C00000000000000
684A3C1EEEEEEEEEED00
684A3C00000000000000
684A3C00000000000000
684A3C00000000000000
684A3C00000000000000
684A3C00000000000000
684A3C1EEEEEEEEEEEEA
684A3C00000000000000
684A3C1EEEEEEEEEEEEA
684A3C00000000000000
684A3C1EEEEEEEEEEEEA
ENDCHAR
STARTCHAR Edieresis
ENCODING 203
SWIDTH 677 0
DWIDTH 22 0
BBX 20 34 1 0
BITMAP
000008DEA20002AED700
00008A117C001D602B70
0000D1000C304B0002C0
0000D1000C304B0003C0
00008B217C001D612B70
000008DEA10002AED700
00000000000000000000
00000000000000000000
00000000000000000000
684A3C1EEEEEEEEEEEEA
684A3C00000000000000
684A3C1EEEEEEEEEEEEA
684A3C00000000000000
684A3C1EEEEEEEEEEEEA
684A3C00000000000000
684A3C00000000000000
684A3C00000000000000
684A3C00000000000000
684A3C00000000000000
684A3C1EEEEEEEEEED00
684A3C00000000000000
684A3C1EEEEEEEEEED00
684A3C00000000000000
684A3C1EEEEEEEEEED00
684A3C00000000000000
684A3C00000000000000
684A3C00000000000000
684A3C00000000000000
684A3C00000000000000
684A3C1EEEEEEEEEEEEA
684A3C00000000000000
684A3C1EEEEEEEEEEEEA
684A3C00000000000000
684A3C1EEEEEEEEEEEEA
ENDCHAR
STARTCHAR Igrave
ENCODING 204
SWIDTH 262 0
DWIDTH 8 0
BBX 9 34 -2 0
BITMAP
4417000000
2E1A700000
0891E20000
01D37A0000
005C0D4000
000B64D000
0002E1A700
0000000000
0000000000
000684A3C0
000684A3C0
000684A3C0
000684A3C0
000684A3C0
000684A3C0
000684A3C0
000684A3C0
000684A3C0
000684A3C0
000684A3C0
000684A3C0
000684A3C0
000684A3C0
000684A3C0
000684A3C0
000684A3C0
000684A3C0
000684A3C0
000684A3C0
000684A3C0
000684A3C0
000684A3C0
000684A3C0
000684A3C0
ENDCHAR
STARTCHAR Iacute
ENCODING 205
SWIDTH 262 0
DWIDTH 8 0
BBX 9 34 1 0
BITMAP
0000062360
00004C0C40
0000D36A00
000791E200
002E198000
00A73D1000
04C0C50000
0000000000
0000000000
684A3C0000
684A3C0000
684A3C0000
684A3C0000
684A3C0000
684A3C0000
684A3C0000
684A3C0000
684A3C0000
684A3C0000
684A3C0000
684A3C0000
684A3C0000
684A3C0000
684A3C0000
684A3C0000
684A3C0000
684A3C0000
684A3C0000
684A3C0000
684A3C0000
684A3C0000
684A3C0000
684A3C0000
684A3C0000
ENDCHAR
STARTCHAR Icircumflex
ENCODING 206
SWIDTH 262 0
DWIDTH 8 0
BBX 14 34 -3 0
BITMAP
00003605400000
0001D44D120000
000A81D31D3000
006C0B7244D100
03E27B03D18A00
1D54D1007B0C60
A91D40000B82E3
00000000000000
00000000000000
0000684A3C0000
0000684A3C0000
0000684A3C0000
0000684A3C0000
0000684A3C0000
0000684A3C0000
0000684A3C0000
0000684A3C0000
0000684A3C0000
0000684A3C0000
0000684A3C0000
0000684A3C0000
0000684A3C0000
0000684A3C0000
0000684A3C0000
0000684A3C0000
0000684A3C0000
0000684A3C0000
0000684A3C0000
0000684A3C0000
0000684A3C0000
0000684A3C0000
0000684A3C0000
0000684A3C0000
0000684A3C0000
ENDCHAR
STARTCHAR Idieresis
ENCODING 207
SWIDTH 262 0
DWIDTH 8 0
BBX 16 34 -4 0
BITMAP
01AED800004CEC40
0C711A8003D403D3
2D0001E008700068
2D0001E008700068
0C812A8003D404D3
01AED800004CEC40
0000000000000000
0000000000000000
0000000000000000
00000684A3C00000
00000684A3C00000
00000684A3C00000
00000684A3C00000
00000684A3C00000
00000684A3C00000
00000684A3C00000
00000684A3C00000
00000684A3C00000
00000684A3C00000
00000684A3C00000
00000684A3C00000
00000684A3C00000
00000684A3C00000
00000684A3C00000
00000684A3C00000
00000684A3C00000
00000684A3C00000
00000684A3C00000
00000684A3C00000
00000684A3C00000
00000684A3C00000
00000684A3C00000
00000684A3C00000
00000684A3C00000
ENDCHAR
STARTCHAR Eth
ENCODING 208
SWIDTH 856 0
DWIDTH 27 0
BBX 27 25 0 0
BITMAP
000C2A4967EEEEDC951000000000
000C2A49600000126AE810000000
000C2A4967EEEEEB8418E5000000
000C2A49600000137CC42C900000
000C2A4967EEEEDB714D91C80000
000C2A49600000249E71BA1D5000
000C2A496000000002BA1C74D000
000C2A4960000000000A82E2A600
000C2A49600000000001D3884B00
000000000000000000006A2E0E10
AEEEEEEEEEEEE10000001E0D2B40
000000000000000000000D2B4A50
AEEEEEEEEEEEE10000000C2A4960
000000000000000000000D2B4A50
AEEEEEEEEEEEE10000001E0D2B40
000000000000000000006A2D0E10
000C2A49600000000001D3884B00
000C2A4960000000000A82E2A600
000C2A496000000002BA1C74D000
000C2A49600000249E61BA1D5000
000C2A4967EEEEDB714D91B80000
000C2A49600000137CC42C900000
000C2A4967EEEEDB8318E6000000
000C2A49600000126AE920000000
000C2A4967EEEEDC951000000000
ENDCHAR
STARTCHAR Ntilde
ENCODING 209
SWIDTH 796 0
DWIDTH 25 0
BBX 23 31 1 0
BITMAP
0000001AEE91000029000000
000000B9118C100069000000
000002D00007D404E3000000
0000038000004CEC40000000
000000000000000000000000
000000000000000000000000
684A3C000000000005A3C1D0
684A3C120000000005A3C1D0
684A3C1B0000000005A3C1D0
684A3C0B7000000005A3C1D0
684A3C01D300000005A3C1D0
684A3C154D10000005A3C1D0
684A3C1E2890000005A3C1D0
684A3C07B1C5000005A3C1D0
684A3C01B72E200005A3C1D0
684A3C191D36B00005A3C1D0
684A3C0C54D1A70005A3C1D0
684A3C03D2891D3005A3C1D0
684A3C006B1C54D105A3C1D0
684A3C000B72D28A05A3C1D0
684A3C0001D36B1C55A3C1D0
684A3C00004D1A7275A3C1D0
684A3C00000891D315A3C1D0
684A3C000000C54D15A3C1D0
684A3C0000002D2875A3C1D0
684A3C00000006B055A3C1D0
684A3C00000000A705A3C1D0
684A3C000000001D35A3C1D0
684A3C000000000485A3C1D0
684A3C000000000025A3C1D0
684A3C000000000005A3C1D0
ENDCHAR
STARTCHAR Ograve
ENCODING 210
SWIDTH 894 0
DWIDTH 29 0
BBX 27 34 1 0
BITMAP
0000000170540000000000000000
00000000A73D1000000000000000
000000001E298000000000000000
0000000007A1D200000000000000
0000000000D46B00000000000000
00000000004D0C50000000000000
00000000000A73D1000000000000
0000000000000000000000000000
0000000000000000000000000000
0000000037BDEEDCA61000000000
0000005CDDDEEEEEDDEA20000000
00002CCBD94200136BDBD7000000
0003D8D8149CEEEB823CABB10000
002D6D42CC6200138D809A9A0000
01D6D44D6000000001AB1A8B7000
079882D300000000000991D3E200
1E3E1B60000000000000C5697900
5A593D000000000000004C1E1E00
A5A578000000000000000E2B4B40
D2C2A5000000000000000B486870
E0D1C30000000000000009677680
E0D1C30000000000000009677590
E0C2A5000000000000000B486680
D2A578000000000000000E1B4870
A5593D000000000000005C1E0B40
5A1E1B70000000000000C4691E00
1E2891D300000000000991D27900
0791C44D6000000001AB1A71E200
01D52D42CC6200138D809A0B7000
002D32C8149CEEEB723C809A0000
0003D617D95200136BC41BB10000
00002CB315ACEEDC8306D7000000
0000005DB731001259DA20000000
0000000037BDEEECA62000000000
ENDCHAR
STARTCHAR Oacute
ENCODING 211
SWIDTH 894 0
DWIDTH 29 0
BBX 27 34 1 0
BITMAP
0000000000000017053000000000
00000000000000982E1000000000
00000000000003D1B60000000000
0000000000000C55C00000000000
0000000000006B1D300000000000
000000000001D289000000000000
00000000000982E1000000000000
0000000000000000000000000000
0000000000000000000000000000
0000000037BDEEDCA61000000000
0000005CDDDEEEEEDDEA20000000
00002CCBD94200136BDBD7000000
0003D8D8149CEEEB823CABB10000
002D6D42CC6200138D809A9A0000
01D6D44D6000000001AB1A8B7000
079882D300000000000991D3E200
1E3E1B60000000000000C5697900
5A593D000000000000004C1E1E00
A5A578000000000000000E2B4B40
D2C2A5000000000000000B486870
E0D1C30000000000000009677680
E0D1C30000000000000009677590
E0C2A5000000000000000B486680
D2A578000000000000000E1B4870
A5593D000000000000005C1E0B40
5A1E1B70000000000000C4691E00
1E2891D300000000000991D27900
0791C44D6000000001AB1A71E200
01D52D42CC6200138D809A0B7000
002D32C8149CEEEB723C809A0000
0003D617D95200136BC41BB10000
00002CB315ACEEDC8306D7000000
0000005DB731001259DA20000000
0000000037BDEEECA62000000000
ENDCHAR
STARTCHAR Ocircumflex
ENCODING 212
SWIDTH 894 0
DWIDTH 29 0
BBX 27 34 1 0
BITMAP
0000000000270450000000000000
0000000000C63E22000000000000
0000000008A1D50D400000000000
000000005D1A9153D10000000000
00000002E36C02E27B0000000000
0000000C63E2005C1A8000000000
0000008A1D50000991D400000000
0000000000000000000000000000
0000000000000000000000000000
0000000037BDEEDCA61000000000
0000005CDDDEEEEEDDEA20000000
00002CCBD94200136BDBD7000000
0003D8D8149CEEEB823CABB10000
002D6D42CC6200138D809A9A0000
01D6D44D6000000001AB1A8B7000
079882D300000000000991D3E200
1E3E1B60000000000000C5697900
5A593D000000000000004C1E1E00
A5A578000000000000000E2B4B40
D2C2A5000000000000000B486870
E0D1C30000000000000009677680
E0D1C30000000000000009677590
E0C2A5000000000000000B486680
D2A578000000000000000E1B4870
A5593D000000000000005C1E0B40
5A1E1B70000000000000C4691E00
1E2891D300000000000991D27900
0791C44D6000000001AB1A71E200
01D52D42CC6200138D809A0B7000
002D32C8149CEEEB723C809A0000
0003D617D95200136BC41BB10000
00002CB315ACEEDC8306D7000000
0000005DB731001259DA20000000
0000000037BDEEECA62000000000
ENDCHAR
STARTCHAR Otilde
ENCODING 213
SWIDTH 894 0
DWIDTH 29 0
BBX 27 31 1 0
BITMAP
000000004CEC5000007400000000
00000002E403D70000D300000000
0000000970001C9119B000000000
000000083000019ED91000000000
0000000000000000000000000000
0000000000000000000000000000
0000000037BDEEDCA61000000000
0000005CDDDEEEEEDDEA20000000
00002CCBD94200136BDBD7000000
0003D8D8149CEEEB823CABB10000
002D6D42CC6200138D809A9A0000
01D6D44D6000000001AB1A8B7000
079882D300000000000991D3E200
1E3E1B60000000000000C5697900
5A593D000000000000004C1E1E00
A5A578000000000000000E2B4B40
D2C2A5000000000000000B486870
E0D1C30000000000000009677680
E0D1C30000000000000009677590
E0C2A5000000000000000B486680
D2A578000000000000000E1B4870
A5593D000000000000005C1E0B40
5A1E1B70000000000000C4691E00
1E2891D300000000000991D27900
0791C44D6000000001AB1A71E200
01D52D42CC6200138D809A0B7000
002D32C8149CEEEB723C809A0000
0003D617D95200136BC41BB10000
00002CB315ACEEDC8306D7000000
0000005DB731001259DA20000000
0000000037BDEEECA62000000000
ENDCHAR
STARTCHAR Odieresis
ENCODING 214
SWIDTH 894 0
DWIDTH 29 0
BBX 27 34 1 0
BITMAP
00000019DD910003BEC600000000
000000A9119A002D403C50000000
000001E0000E10690005A0000000
000001E0000E10690005A0000000
000000A9119A002E503D50000000
00000019DD910003BEC500000000
0000000000000000000000000000
0000000000000000000000000000
0000000000000000000000000000
0000000037BDEEDCA61000000000
0000005CDDDEEEEEDDEA20000000
00002CCBD94200136BDBD7000000
0003D8D8149CEEEB823CABB10000
002D6D42CC6200138D809A9A0000
01D6D44D6000000001AB1A8B7000
079882D300000000000991D3E200
1E3E1B60000000000000C5697900
5A593D000000000000004C1E1E00
A5A578000000000000000E2B4B40
D2C2A5000000000000000B486870
E0D1C30000000000000009677680
E0D1C30000000000000009677590
E0C2A5000000000000000B486680
D2A578000000000000000E1B4870
A5593D000000000000005C1E0B40
5A1E1B70000000000000C4691E00
1E2891D300000000000991D27900
0791C44D6000000001AB1A71E200
01D52D42CC6200138D809A0B7000
002D32C8149CEEEB723C809A0000
0003D617D95200136BC41BB10000
00002CB315ACEEDC8306D7000000
0000005DB731001259DA20000000
0000000037BDEEECA62000000000
ENDCHAR
STARTCHAR multiply
ENCODING 215
SWIDTH 370 0
DWIDTH 12 0
BBX 10 10 1 1
BITMAP
0191002400
118C02D600
7C132D62D2
0852D62D60
002D62D600
02D62D6210
2D62D607B1
252D61A184
00B6008B00
0000000300
ENDCHAR
STARTCHAR Oslash
ENCODING 216
SWIDTH 894 0
DWIDTH 29 0
BBX 27 26 1 -1
BITMAP
0000000037BDEEDCA61085410000
0000005DDDDEEEDC8203D4D27000
00002CBBD9420013601D5D599000
0004D8D8149CEEEA0098995D1000
003D5D42CC62001205C5D2D32000
01D5C44D600000002E4D3B70D100
089892D300000000B7B77B128800
1E2D1B7000000007B6C3D15A2D00
69593D000000003E4E3D431E1C30
A5A57800000000C5C6A80C1B4960
D2C2A500034008A8A6C00A486680
E0D1C3000C504D4D3E2009678590
E0D1C3009A01D4D4C60009677590
E0C2A404D10A8A8160000B486770
D2A5771D306C5C0000000E1B4960
956921B702E4E30000004C1E0D20
5A1E06C00C6B70000000C4693D00
0D232E207B7B0000000991D2A700
0780C503D4E2000001AB1A73D000
0028A01D5C5200138D80AA1D5000
004D10998A4CEEEB723C81B80000
01D305D5D45210136BC42C900000
02601D4D44ACEEDC8317D6000000
0000B7A89731001259E910000000
0006C6C038BDEFEDA61000000000
0002292000000000000000000000
ENDCHAR
STARTCHAR Ugrave
ENCODING 217
SWIDTH 702 0
DWIDTH 22 0
BBX 20 34 1 0
BITMAP
00004417000000000000
00002E1A700000000000
00000892E20000000000
000001D37A0000000000
0000005C0D4000000000
0000000B64D000000000
00000002D1A700000000
00000000000000000000
00000000000000000000
684A3C000000005A3B1D
684A3C000000005A3B1D
684A3C000000005A3B1D
684A3C000000005A3B1D
684A3C000000005A3B1D
684A3C000000005A3B1D
684A3C000000005A3B1D
684A3C000000005A3B1D
684A3C000000005A3B1D
684A3C000000005A3B1D
684A3C000000005A3B1D
684A3C000000005A3B1D
684A3C000000005A3B1D
684A3C000000005A3B1D
684A3C000000005A3B1D
684A3C000000005A3B1D
693B1D00000000684A2C
4B1E0D20000000A5784A
1E1B47A0000003D1C387
0A65C1AA31026D46B0D2
03D19B16BDED825D2890
006B18D731025BC25D10
0008D228CDEDA508D200
00005D95100037DA1000
0000016ADEEEC8300000
ENDCHAR
STARTCHAR Uacute
ENCODING 218
SWIDTH 702 0
DWIDTH 22 0
BBX 20 34 1 0
BITMAP
00000000000053270000
000000000003D1A60000
00000000000B64C00000
00000000005C0D400000
0000000001D37A000000
000000000892E1000000
000000002D1A70000000
00000000000000000000
00000000000000000000
684A3C000000005A3B1D
684A3C000000005A3B1D
684A3C000000005A3B1D
684A3C000000005A3B1D
684A3C000000005A3B1D
684A3C000000005A3B1D
684A3C000000005A3B1D
684A3C000000005A3B1D
684A3C000000005A3B1D
684A3C000000005A3B1D
684A3C000000005A3B1D
684A3C000000005A3B1D
684A3C000000005A3B1D
684A3C000000005A3B1D
684A3C000000005A3B1D
684A3C000000005A3B1D
693B1D00000000684A2C
4B1E0D20000000A5784A
1E1B47A0000003D1C387
0A65C1AA31026D46B0D2
03D19B16BDED825D2890
006B18D731025BC25D10
0008D228CDEDA508D200
00005D95100037DA1000
0000016ADEEEC8300000
ENDCHAR
STARTCHAR Ucircumflex
ENCODING 219
SWIDTH 702 0
DWIDTH 22 0
BBX 20 34 1 0
BITMAP
00000002705400000000
0000001C53D120000000
000000991D40D3000000
000005C1B8244D100000
00002E27B03E28A00000
0000C53D2006C0B70000
000991D40000A81D3000
00000000000000000000
00000000000000000000
684A3C000000005A3B1D
684A3C000000005A3B1D
684A3C000000005A3B1D
684A3C000000005A3B1D
684A3C000000005A3B1D
684A3C000000005A3B1D
684A3C000000005A3B1D
684A3C000000005A3B1D
684A3C000000005A3B1D
684A3C000000005A3B1D
684A3C000000005A3B1D
684A3C000000005A3B1D
684A3C000000005A3B1D
684A3C000000005A3B1D
684A3C000000005A3B1D
684A3C000000005A3B1D
693B1D00000000684A2C
4B1E0D20000000A5784A
1E1B47A0000003D1C387
0A65C1AA31026D46B0D2
03D19B16BDED825D2890
006B18D731025BC25D10
0008D228CDEDA508D200
00005D95100037DA1000
0000016ADEEEC8300000
ENDCHAR
STARTCHAR Udieresis
ENCODING 220
SWIDTH 702 0
DWIDTH 22 0
BBX 20 34 1 0
BITMAP
0001AED810004CEC5000
000B811A9002D403D400
002D0001E00780006900
002D0001E00780006900
000B811A9002E403D400
00019DD800004CEC5000
00000000000000000000
00000000000000000000
00000000000000000000
684A3C000000005A3B1D
684A3C000000005A3B1D
684A3C000000005A3B1D
684A3C000000005A3B1D
684A3C000000005A3B1D
684A3C000000005A3B1D
684A3C000000005A3B1D
684A3C000000005A3B1D
684A3C000000005A3B1D
684A3C000000005A3B1D
684A3C000000005A3B1D
684A3C000000005A3B1D
684A3C000000005A3B1D
684A3C000000005A3B1D
684A3C000000005A3B1D
684A3C000000005A3B1D
693B1D00000000684A2C
4B1E0D20000000A5784A
1E1B47A0000003D1C387
0A65C1AA31026D46B0D2
03D19B16BDED825D2890
006B18D731025BC25D10
0008D228CDEDA508D200
00005D95100037DA1000
0000016ADEEEC8300000
ENDCHAR
STARTCHAR Yacute
ENCODING 221
SWIDTH 769 0
DWIDTH 25 0
BBX 25 34 0 0
BITMAP
00000000000000723500000000
00000000000005C0D400000000
0000000000001D37A000000000
000000000000892E2000000000
000000000002E1A70000000000
00000000000B64D00000000000
00000000005C0C400000000000
00000000000000000000000000
00000000000000000000000000
5C0C54D10000000004D1B63D10
0A82D299000000001D36B1D400
01D37B1D40000000A82E289000
004C0B64D1000005C1B64D1000
000982D29900001E37B1D40000
0001D36B1D4000A82E29900000
00004C0B64D106C0C64D100000
00000982D2990D37B1D4000000
000001D36B1D413E2990000000
0000004D1B64D1864D10000000
0000000982D28911D400000000
00000001D36B1D449000000000
000000004D1B63D10000000000
00000000031130310000000000
00000000037180900000000000
0000000004A2C1E00000000000
0000000004A2C1E00000000000
0000000004A2C1E00000000000
0000000004A2C1E00000000000
0000000004A2C1E00000000000
0000000004A2C1E00000000000
0000000004A2C1E00000000000
0000000004A2C1E00000000000
0000000004A2C1E00000000000
0000000004A2C1E00000000000
ENDCHAR
STARTCHAR Thorn
ENCODING 222
SWIDTH 743 0
DWIDTH 24 0
BBX 22 25 1 0
BITMAP
684A3C0000000000000000
684A3C0000000000000000
684A3C0000000000000000
684A3C0000000000000000
684A3C1EEEEEEEEDA50000
684A3C00000000014AC200
684A3C0000000000005D20
684A3C1EEEEEEEED9305D0
684A3C00000000016D60A6
684A3C1EEEEEEEEC51D34B
684A3C0000000003C5692D
684A3C00000000004A2C0E
684A3C00000000005A2C2D
684A3C0000000003C5694B
684A3C1EEEEEEEEC51D3A6
684A3C00000000016D55C0
684A3C1EEEEEEEED925D20
684A3C00000000025AC200
684A3C1EEEEEEEEDA50000
684A3C0000000000000000
684A3C0000000000000000
684A3C0000000000000000
684A3C0000000000000000
684A3C0000000000000000
684A3C0000000000000000
ENDCHAR
STARTCHAR germandbls
ENCODING 223
SWIDTH 424 0
DWIDTH 14 0
BBX 12 13 1 0
BITMAP
02AEEEEEB300
1D7100015E30
792CEEED46A0
A5870004B2D0
B4950004B2D0
B49508EFEAB0
B495000029C0
B49508EEB1B5
B4950000A678
B4950000A678
B4952EEEB1B5
B495000019C0
B4952EEEE910
ENDCHAR
STARTCHAR agrave
ENCODING 224
SWIDTH 414 0
DWIDTH 13 0
BBX 13 18 0 0
BITMAP
00005C00000000
00000A70000000
000001D2000000
00000000000000
00000000000000
00003D0E600000
0000875DC00000
0000D2A5D20000
0004B1F5780000
000A66DA2D0000
001E1B3D1C3000
005A2C09669000
00B57703B1E000
01E0CEEEF2B500
0693C000875A00
0C4890005C1E10
2D0DEEEEEF2A60
884C00000984B0
ENDCHAR
STARTCHAR aacute
ENCODING 225
SWIDTH 414 0
DWIDTH 13 0
BBX 13 18 0 0
BITMAP
00000000C50000
00000007A00000
0000002D100000
00000000000000
00000000000000
00003D0E600000
0000875DC00000
0000D2A5D20000
0004B1F5780000
000A66DA2D0000
001E1B3D1C3000
005A2C09669000
00B57703B1E000
01E0CEEEF2B500
0693C000875A00
0C4890005C1E10
2D0DEEEEEF2A60
884C00000984B0
ENDCHAR
STARTCHAR acircumflex
ENCODING 226
SWIDTH 414 0
DWIDTH 13 0
BBX 13 18 0 0
BITMAP
000008A0000000
00006C18600000
0004D102D40000
00000000000000
00000000000000
00003D0E600000
0000875DC00000
0000D2A5D20000
0004B1F5780000
000A66DA2D0000
001E1B3D1C3000
005A2C09669000
00B57703B1E000
01E0CEEEF2B500
0693C000875A00
0C4890005C1E10
2D0DEEEEEF2A60
884C00000984B0
ENDCHAR
STARTCHAR atilde
ENCODING 227
SWIDTH 414 0
DWIDTH 13 0
BBX 13 17 0 0
BITMAP
0005DEA3194000
000A316CE90000
00000000000000
00000000000000
00003D0E600000
0000875DC00000
0000D2A5D20000
0004B1F5780000
000A66DA2D0000
001E1B3D1C3000
005A2C09669000
00B57703B1E000
01E0CEEEF2B500
0693C000875A00
0C4890005C1E10
2D0DEEEEEF2A60
884C00000984B0
ENDCHAR
STARTCHAR adieresis
ENCODING 228
SWIDTH 414 0
DWIDTH 13 0
BBX 13 18 0 0
BITMAP
00001000100000
0002EA04F80000
0002E903E70000
00000000000000
00000000000000
00003D0E600000
0000875DC00000
0000D2A5D20000
0004B1F5780000
000A66DA2D0000
001E1B3D1C3000
005A2C09669000
00B57703B1E000
01E0CEEEF2B500
0693C000875A00
0C4890005C1E10
2D0DEEEEEF2A60
884C00000984B0
ENDCHAR
STARTCHAR aring
ENCODING 229
SWIDTH 414 0
DWIDTH 13 0
BBX 13 19 0 0
BITMAP
000006EB100000
00000D16700000
00000D17700000
000006EB100000
00000000000000
00000000000000
00003D0E600000
0000875DC00000
0000D2A5D20000
0004B1F5780000
000A66DA2D0000
001E1B3D1C3000
005A2C09669000
00B57703B1E000
01E0CEEEF2B500
0693C000875A00
0C4890005C1E10
2D0DEEEEEF2A60
884C00000984B0
ENDCHAR
STARTCHAR ae
ENCODING 230
SWIDTH 593 0
DWIDTH 19 0
BBX 19 13 0 0
BITMAP
0000001D19FEEEEEEE60
000000972DD000000000
000002D1A5EEEEEEEE60
00000963F0D200000000
00003D0BF1B300000000
0000A64CC39FEEEEE500
0003C0C5A58700000000
000B55C0966FEEEEE500
004C0D40784A00000000
00C46B005A3B00000000
05B1DEEEEC1FEEEEEE60
0D3790002D0E00000000
6A1E20000E0DEEEEEE60
ENDCHAR
STARTCHAR ccedilla
ENCODING 231
SWIDTH 446 0
DWIDTH 14 0
BBX 13 18 1 -5
BITMAP
00039DEEC81000
008D720027D600
08B16CEEB41B10
4C1AB3104C5000
A56A0000010000
E1C30000000000
E0D10000000000
E1C30000000000
A56A0000010000
4C1AB4114C5000
08B16CEEB42B10
008D720027D600
00039FFEC81000
00000B70000000
00004FED600000
00002402E00000
00004204E00000
00006CEC400000
ENDCHAR
STARTCHAR egrave
ENCODING 232
SWIDTH 363 0
DWIDTH 12 0
BBX 11 18 1 0
BITMAP
0007A0000000
0000C4000000
00003D100000
000000000000
000000000000
B49FEEEEEE10
B49500000000
B49FEEEEEE10
B49500000000
B49500000000
B49FEEEEE000
B49500000000
B49FEEEEE000
B49500000000
B49500000000
B49FEEEEEE10
B49500000000
B49FEEEEEE10
ENDCHAR
STARTCHAR eacute
ENCODING 233
SWIDTH 363 0
DWIDTH 12 0
BBX 11 18 1 0
BITMAP
0000001D3000
000000980000
000004D00000
000000000000
000000000000
B49FEEEEEE10
B49500000000
B49FEEEEEE10
B49500000000
B49500000000
B49FEEEEE000
B49500000000
B49FEEEEE000
B49500000000
B49500000000
B49FEEEEEE10
B49500000000
B49FEEEEEE10
ENDCHAR
STARTCHAR ecircumflex
ENCODING 234
SWIDTH 363 0
DWIDTH 12 0
BBX 11 18 1 0
BITMAP
0000A9000000
0008B0A40000
005C103D3000
000000000000
000000000000
B49FEEEEEE10
B49500000000
B49FEEEEEE10
B49500000000
B49500000000
B49FEEEEE000
B49500000000
B49FEEEEE000
B49500000000
B49500000000
B49FEEEEEE10
B49500000000
B49FEEEEEE10
ENDCHAR
STARTCHAR edieresis
ENCODING 235
SWIDTH 363 0
DWIDTH 12 0
BBX 11 18 1 0
BITMAP
000100010000
003F905F6000
003E804E6000
000000000000
000000000000
B49FEEEEEE10
B49500000000
B49FEEEEEE10
B49500000000
B49500000000
B49FEEEEE000
B49500000000
B49FEEEEE000
B49500000000
B49500000000
B49FEEEEEE10
B49500000000
B49FEEEEEE10
ENDCHAR
STARTCHAR igrave
ENCODING 236
SWIDTH 176 0
DWIDTH 6 0
BBX 5 18 0 0
BITMAP
5C0000
0A6000
02D200
000000
000000
0B4950
0B4950
0B4950
0B4950
0B4950
0B4950
0B4950
0B4950
0B4950
0B4950
0B4950
0B4950
0B4950
ENDCHAR
STARTCHAR iacute
ENCODING 237
SWIDTH 176 0
DWIDTH 6 0
BBX 5 18 1 0
BITMAP
000C50
007A00
02D100
000000
000000
B49500
B49500
B49500
B49500
B49500
B49500
B49500
B49500
B49500
B49500
B49500
B49500
B49500
ENDCHAR
STARTCHAR icircumflex
ENCODING 238
SWIDTH 176 0
DWIDTH 6 0
BBX 7 18 -1 0
BITMAP
007B0000
05C17700
3D201D50
00000000
00000000
00B49500
00B49500
00B49500
00B49500
00B49500
00B49500
00B49500
00B49500
00B49500
00B49500
00B49500
00B49500
00B49500
ENDCHAR
STARTCHAR idieresis
ENCODING 239
SWIDTH 176 0
DWIDTH 6 0
BBX 7 18 -1 0
BITMAP
00000100
1EB03F90
1DA03E80
00000000
00000000
00B49500
00B49500
00B49500
00B49500
00B49500
00B49500
00B49500
00B49500
00B49500
00B49500
00B49500
00B49500
00B49500
ENDCHAR
STARTCHAR eth
ENCODING 240
SWIDTH 455 0
DWIDTH 15 0
BBX 14 13 0 0
BITMAP
0867FEEEC71000
0867800138D400
0867FEEEB43D30
086780015D63D0
0867800002E1B4
00000000009677
CEEEEE20007768
00000000009577
0867800002D1B4
086780026D53D0
0867FEEEA33D30
0867800138D400
0867FEEEC71000
ENDCHAR
STARTCHAR ntilde
ENCODING 241
SWIDTH 444 0
DWIDTH 14 0
BBX 12 17 1 0
BITMAP
001BEC505800
006704BEC300
000000000000
000000000000
B49B00002C0E
B49F60002C0E
B498E2002C0E
B4966C002C0E
B49D1A802C0E
B49DA1D42C0E
B496C64D3C0E
B4952D28CC0E
B49506C0CC0E
B49500A83C0E
B495001D6C0E
B4950003EC0E
B49500008C0E
ENDCHAR
STARTCHAR ograve
ENCODING 242
SWIDTH 494 0
DWIDTH 16 0
BBX 14 18 1 0
BITMAP
00004D00000000
00000980000000
000001D3000000
00000000000000
00000000000000
00039DEEC72000
008D720038D500
08B16CEEB42C50
4C1AB3115D72D1
A56A000001C387
E1C3000000694B
E0D10000004B2C
E1C3000000694B
A56A000001D387
4C1AB4115D72D1
08B16CEEB42C50
008D720028D500
00039DEEC82000
ENDCHAR
STARTCHAR oacute
ENCODING 243
SWIDTH 494 0
DWIDTH 16 0
BBX 14 18 1 0
BITMAP
00000001D20000
0000000A700000
0000005C000000
00000000000000
00000000000000
00039DEEC72000
008D720038D500
08B16CEEB42C50
4C1AB3115D72D1
A56A000001C387
E1C3000000694B
E0D10000004B2C
E1C3000000694B
A56A000001D387
4C1AB4115D72D1
08B16CEEB42C50
008D720028D500
00039DEEC82000
ENDCHAR
STARTCHAR ocircumflex
ENCODING 244
SWIDTH 494 0
DWIDTH 16 0
BBX 14 18 1 0
BITMAP
000006C1000000
00004D16800000
0002D301C60000
00000000000000
00000000000000
00039DEEC72000
008D720038D500
08B16CEEB42C50
4C1AB3115D72D1
A56A000001C387
E1C3000000694B
E0D10000004B2C
E1C3000000694B
A56A000001D387
4C1AB4115D72D1
08B16CEEB42C50
008D720028D500
00039DEEC82000
ENDCHAR
STARTCHAR otilde
ENCODING 245
SWIDTH 494 0
DWIDTH 16 0
BBX 14 17 1 0
BITMAP
0003CEB4175000
0008505CEB1000
00000000000000
00000000000000
00039DEEC72000
008D720038D500
08B16CEEB42C50
4C1AB3115D72D1
A56A000001C387
E1C3000000694B
E0D10000004B2C
E1C3000000694B
A56A000001D387
4C1AB4115D72D1
08B16CEEB42C50
008D720028D500
00039DEEC82000
ENDCHAR
STARTCHAR odieresis
ENCODING 246
SWIDTH 494 0
DWIDTH 16 0
BBX 14 18 1 0
BITMAP
00000000100000
0000DD02EA0000
0000CC02E90000
00000000000000
00000000000000
00039DEEC72000
008D720038D500
08B16CEEB42C50
4C1AB3115D72D1
A56A000001C387
E1C3000000694B
E0D10000004B2C
E1C3000000694B
A56A000001D387
4C1AB4115D72D1
08B16CEEB42C50
008D720028D500
00039DEEC82000
ENDCHAR
STARTCHAR divide
ENCODING 247
SWIDTH 418 0
DWIDTH 13 0
BBX 12 11 1 1
BITMAP
00005EA00000
0000B4B20000
00004EA00000
000000000000
AEEEEEEEEEE1
000000000000
AEEEEEEEEEE1
000000000000
00005EA00000
0000B4B20000
00004EA00000
ENDCHAR
STARTCHAR oslash
ENCODING 248
SWIDTH 494 0
DWIDTH 16 0
BBX 14 13 1 0
BITMAP
00039DEEC60580
008D7200224D20
08A16CEE23E320
4C1AB3102E40E2
B56A0002D53388
E1C3001C60693B
E0D101C8004B2C
E1C30B9000694B
B5419A0001D387
4A08B1115D72D1
017C16EEB42C50
05D1420028D500
08218DEEC82000
ENDCHAR
STARTCHAR ugrave
ENCODING 249
SWIDTH 400 0
DWIDTH 13 0
BBX 11 18 1 0
BITMAP
000B60000000
0002D1000000
00007A000000
000000000000
000000000000
B49500086780
B49500086780
B49500086780
B49500086780
B49500086780
B49500086780
B49500086780
B49500086780
A487000A5770
773D304D1B40
2D25CEB34D00
05D51017D300
003AEED91000
ENDCHAR
STARTCHAR uacute
ENCODING 250
SWIDTH 400 0
DWIDTH 13 0
BBX 11 18 1 0
BITMAP
000000890000
000003D10000
00000C500000
000000000000
000000000000
B49500086780
B49500086780
B49500086780
B49500086780
B49500086780
B49500086780
B49500086780
B49500086780
A487000A5770
773D304D1B40
2D25CEB34D00
05D51017D300
003AEED91000
ENDCHAR
STARTCHAR ucircumflex
ENCODING 251
SWIDTH 400 0
DWIDTH 13 0
BBX 11 18 1 0
BITMAP
0001C5000000
000B70C20000
0099005C1000
000000000000
000000000000
B49500086780
B49500086780
B49500086780
B49500086780
B49500086780
B49500086780
B49500086780
B49500086780
A487000A5770
773D304D1B40
2D25CEB34D00
05D51017D300
003AEED91000
ENDCHAR
STARTCHAR udieresis
ENCODING 252
SWIDTH 400 0
DWIDTH 13 0
BBX 11 18 1 0
BITMAP
000100010000
006F509F3000
006E508E3000
000000000000
000000000000
B49500086780
B49500086780
B49500086780
B49500086780
B49500086780
B49500086780
B49500086780
B49500086780
A487000A5770
773D304D1B40
2D25CEB34D00
05D51017D300
003AEED91000
ENDCHAR
STARTCHAR yacute
ENCODING 253
SWIDTH 422 0
DWIDTH 14 0
BBX 13 18 0 0
BITMAP
00000003D10000
0000000C400000
0000007A000000
00000000000000
00000000000000
6C0C60001D45D0
0B73E1008A1D40
02E28A03E19900
007B0D4C63E100
000C54EC0D5000
0003E1997B0000
0000991EE20000
00001302200000
00000C3A400000
00000C3A400000
00000C3A400000
00000C3A400000
00000C3A400000
ENDCHAR
STARTCHAR thorn
ENCODING 254
SWIDTH 412 0
DWIDTH 13 0
BBX 12 13 1 0
BITMAP
B49500000000
B49500000000
B49500000000
B49FEEEEC600
B49500003B90
B49FEEEE91E1
B4950001E1C3
B49FEEEE91E1
B49500003B90
B49FEEEEC600
B49500000000
B49500000000
B49500000000
ENDCHAR
STARTCHAR ydieresis
ENCODING 255
SWIDTH 422 0
DWIDTH 14 0
BBX 13 18 0 0
BITMAP
00001000100000
0002EA04F80000
0002E903E70000
00000000000000
00000000000000
6C0C60001D45D0
0B73E1008A1D40
02E28A03E19900
007B0D4C63E100
000C54EC0D5000
0003E1997B0000
0000991EE20000
00001302200000
00000C3A400000
00000C3A400000
00000C3A400000
00000C3A400000
00000C3A400000
ENDCHAR
STARTCHAR Edotaccent
ENCODING 278
SWIDTH 677 0
DWIDTH 22 0
BBX 20 31 1 0
BITMAP
00000000006C50000000
0000000000EFC0000000
00000000008E70000000
00000000000000000000
00000000000000000000
00000000000000000000
684A3C1EEEEEEEEEEEEA
684A3C00000000000000
684A3C1EEEEEEEEEEEEA
684A3C00000000000000
684A3C1EEEEEEEEEEEEA
684A3C00000000000000
684A3C00000000000000
684A3C00000000000000
684A3C00000000000000
684A3C00000000000000
684A3C1EEEEEEEEEED00
684A3C00000000000000
684A3C1EEEEEEEEEED00
684A3C00000000000000
684A3C1EEEEEEEEEED00
684A3C00000000000000
684A3C00000000000000
684A3C00000000000000
684A3C00000000000000
684A3C00000000000000
684A3C1EEEEEEEEEEEEA
684A3C00000000000000
684A3C1EEEEEEEEEEEEA
684A3C00000000000000
684A3C1EEEEEEEEEEEEA
ENDCHAR
STARTCHAR edotaccent
ENCODING 279
SWIDTH 363 0
DWIDTH 12 0
BBX 11 18 1 0
BITMAP
00004C700000
0000BFF00000
00005EA00000
000000000000
000000000000
B49FEEEEEE10
B49500000000
B49FEEEEEE10
B49500000000
B49500000000
B49FEEEEE000
B49500000000
B49FEEEEE000
B49500000000
B49500000000
B49FEEEEEE10
B49500000000
B49FEEEEEE10
ENDCHAR
STARTCHAR dotlessi
ENCODING 305
SWIDTH 176 0
DWIDTH 6 0
BBX 4 13 1 0
BITMAP
B495
B495
B495
B495
B495
B495
B495
B495
B495
B495
B495
B495
B495
ENDCHAR
STARTCHAR OE
ENCODING 338
SWIDTH 1221 0
DWIDTH 39 0
BBX 38 25 1 0
BITMAP
0000000037BDEEEEC00000009EEEEEEEEEEEE2
0000005DC84200000000000000000000000000
00002CB326ADEEEEC00000009EEEEEEEEEEEE2
0004D619E94200000000000000000000000000
002E44E8149CEEEEC00000009EEEEEEEEEEEE2
01D54D42CB6210000000000000000000000000
0792E45D500000000000000000000000000000
1E2A73D2000000000000000000000000000000
5A3D0C50000000000000000000000000000000
A5884C00000000000000000000000000000000
D2B4870000000000000000009EEEEEEEEEE400
E1D2B400000000000000000000000000000000
F0E1C30000000000000000009EEEEEEEEEE400
E1D2B400000000000000000000000000000000
D2B4870000000000000000009EEEEEEEEEE400
A5884C00000000000000000000000000000000
5A3D0C50000000000000000000000000000000
1E2B73E2000000000000000000000000000000
0892E45D500000000000000000000000000000
01D54E43CC6310000000000000000000000000
003E34E8159CEEEEC00000009EEEEEEEEEEEE2
0004E619E94200000000000000000000000000
00002CB326ADEEEEC00000009EEEEEEEEEEEE2
0000006DC73100000000000000000000000000
0000000048BDEEEEC00000009EEEEEEEEEEEE2
ENDCHAR
STARTCHAR oe
ENCODING 339
SWIDTH 637 0
DWIDTH 20 0
BBX 19 13 1 0
BITMAP
00049DEEE100DEEEEEC0
009C6200000000000000
0A917CEEE100DEEEEEC0
4C1CA300000000000000
B4790000000000000000
E1C200000000DEEEEB00
E0E10000000000000000
E1C200000000DEEEEB00
B5790000000000000000
4C1BA310000000000000
0A917CEEE100DEEEEEC0
009C6200000000000000
00049DEEE100DEEEEEC0
ENDCHAR
STARTCHAR Wcircumflex
ENCODING 372
SWIDTH 972 0
DWIDTH 31 0
BBX 31 34 0 0
BITMAP
00000000000007236000000000000000
0000000000008A1D5200000000000000
000000000005D1A80970000000000000
00000000002E36C061D4000000000000
0000000000C63E20C53D100000000000
0000000008A1D5002E27B00000000000
000000004D19900005C1A80000000000
00000000000000000000000000000000
00000000000000000000000000000000
3B1E0D200000087693C000000E0C2A50
0E1C396000000C39578000004B1E0E10
0B48769000001E0D2B400000875A2D00
0784B2D000005A2D0E100000B3966900
03C1E0D2000086693C000001E0C2A500
00E1C3960000C3A578400004B1E0E100
00A5875A0001E0D1B484000875A2D000
00684B1E0005A2D0E178000B39669000
002C0E0C30086693C04C001E0C2A5000
000D1B48700C2A57830E104B1D0E1000
000A5785B01D0D1B492B40875A2C0000
000693C1E04A2D0E196780C386690000
0002D0E1C386693C05A3C0E0C2A50000
0000D2A48762A57821E0E181D0E10000
000096784B20D1B490C3A515A3C00000
00005A3C1E02D0E1B486690866900000
00001D0E1B4694C0884A2D0C2A500000
00000D2A578757804C1E0D1B0E100000
0000096693C31B400E1C3A533C000000
000005A2D0E10E100B48769068000000
000001E0D2B44C000784B2D0A5000000
000000C39578680003C1E0D2C1000000
00000087693C240000E1B49660000000
0000004B2D0E100000A5785A00000000
0000001E0D2A500000694B1D00000000
ENDCHAR
STARTCHAR wcircumflex
ENCODING 373
SWIDTH 521 0
DWIDTH 17 0
BBX 17 18 0 0
BITMAP
0000001D4000000000
000000C61C10000000
00000A9006C1000000
000000000000000000
000000000000000000
8769001E0D200E1C30
4B2D004B2F003C1E00
1E0D20876F30784B00
0C3960C3AD70B48700
0875A1E0D6B1E0C300
04B1D5A2D0E4B1E000
00E1CC66F1BC75A000
00B48F2AE57F396000
00784D0E793E0D2000
003C1E3C2D0E3D0000
000E1BA80D2AB90000
000A58F40966F50000
000694F005A2F10000
ENDCHAR
STARTCHAR Ycircumflex
ENCODING 374
SWIDTH 769 0
DWIDTH 25 0
BBX 25 34 0 0
BITMAP
00000000027045000000000000
000000000C63E2200000000000
000000008A1D50C40000000000
00000004D199153D1000000000
0000002D36C02E36B000000000
000000B72E2005D1A800000000
000008A1C50000991D40000000
00000000000000000000000000
00000000000000000000000000
5C0C54D10000000004D1B63D10
0A82D299000000001D36B1D400
01D37B1D40000000A82E289000
004C0B64D1000005C1B64D1000
000982D29900001E37B1D40000
0001D36B1D4000A82E29900000
00004C0B64D106C0C64D100000
00000982D2990D37B1D4000000
000001D36B1D413E2990000000
0000004D1B64D1864D10000000
0000000982D28911D400000000
00000001D36B1D449000000000
000000004D1B63D10000000000
00000000031130310000000000
00000000037180900000000000
0000000004A2C1E00000000000
0000000004A2C1E00000000000
0000000004A2C1E00000000000
0000000004A2C1E00000000000
0000000004A2C1E00000000000
0000000004A2C1E00000000000
0000000004A2C1E00000000000
0000000004A2C1E00000000000
0000000004A2C1E00000000000
0000000004A2C1E00000000000
ENDCHAR
STARTCHAR ycircumflex
ENCODING 375
SWIDTH 422 0
DWIDTH 14 0
BBX 13 18 0 0
BITMAP
000008A0000000
00006C18600000
0004D102D40000
00000000000000
00000000000000
6C0C60001D45D0
0B73E1008A1D40
02E28A03E19900
007B0D4C63E100
000C54EC0D5000
0003E1997B0000
0000991EE20000
00001302200000
00000C3A400000
00000C3A400000
00000C3A400000
00000C3A400000
00000C3A400000
ENDCHAR
STARTCHAR Ydieresis
ENCODING 376
SWIDTH 769 0
DWIDTH 25 0
BBX 25 34 0 0
BITMAP
0000019DD910003BED60000000
00000A9118A001D502C5000000
00000E0000E10690004A000000
00000E0000E10690004A000000
00000A9119A001D503C5000000
0000019DD910003BEC60000000
00000000000000000000000000
00000000000000000000000000
00000000000000000000000000
5C0C54D10000000004D1B63D10
0A82D299000000001D36B1D400
01D37B1D40000000A82E289000
004C0B64D1000005C1B64D1000
000982D29900001E37B1D40000
0001D36B1D4000A82E29900000
00004C0B64D106C0C64D100000
00000982D2990D37B1D4000000
000001D36B1D413E2990000000
0000004D1B64D1864D10000000
0000000982D28911D400000000
00000001D36B1D449000000000
000000004D1B63D10000000000
00000000031130310000000000
00000000037180900000000000
0000000004A2C1E00000000000
0000000004A2C1E00000000000
0000000004A2C1E00000000000
0000000004A2C1E00000000000
0000000004A2C1E00000000000
0000000004A2C1E00000000000
0000000004A2C1E00000000000
0000000004A2C1E00000000000
0000000004A2C1E00000000000
0000000004A2C1E00000000000
ENDCHAR
STARTCHAR circumflex
ENCODING 710
SWIDTH 298 0
DWIDTH 10 0
BBX 7 3 1 15
BITMAP
004D1000
03D24A00
1D400B80
ENDCHAR
STARTCHAR dotaccent
ENCODING 729
SWIDTH 212 0
DWIDTH 7 0
BBX 3 3 2 15
BITMAP
7C40
FFB0
9E60
ENDCHAR
STARTCHAR ring
ENCODING 730
SWIDTH 212 0
DWIDTH 7 0
BBX 5 4 1 15
BITMAP
0AE800
590B20
591C10
0AE700
ENDCHAR
STARTCHAR tilde
ENCODING 732
SWIDTH 329 0
DWIDTH 11 0
BBX 8 2 1 15
BITMAP
0AED614A
4913AED4
ENDCHAR
STARTCHAR gravecomb
ENCODING 768
SWIDTH 0 0
DWIDTH 0 0
BBX 4 3 1 15
BITMAP
2D10
07A0
00C5
ENDCHAR
STARTCHAR acutecomb
ENCODING 769
SWIDTH 0 0
DWIDTH 0 0
BBX 4 3 1 15
BITMAP
00C5
07A0
2D10
ENDCHAR
STARTCHAR uni0302
ENCODING 770
SWIDTH 0 0
DWIDTH 0 0
BBX 7 3 1 15
BITMAP
004D1000
03D24A00
1D400B80
ENDCHAR
STARTCHAR tildecomb
ENCODING 771
SWIDTH 0 0
DWIDTH 0 0
BBX 8 2 1 15
BITMAP
0AED614A
4913AED4
ENDCHAR
STARTCHAR uni0307
ENCODING 775
SWIDTH 0 0
DWIDTH 0 0
BBX 3 3 2 15
BITMAP
7C40
FFB0
9E60
ENDCHAR
STARTCHAR uni0308
ENCODING 776
SWIDTH 0 0
DWIDTH 0 0
BBX 7 3 1 15
BITMAP
01000100
4F806F60
3E705E50
ENDCHAR
STARTCHAR uni030A
ENCODING 778
SWIDTH 0 0
DWIDTH 0 0
BBX 5 4 1 15
BITMAP
0AE800
590B20
591C10
0AE700
ENDCHAR
STARTCHAR uni0327
ENCODING 807
SWIDTH 0 0
DWIDTH 0 0
BBX 6 6 1 -5
BITMAP
005500
01E200
09FEC3
03306A
151189
19DEA1
ENDCHAR
STARTCHAR Wgrave
ENCODING 7808
SWIDTH 972 0
DWIDTH 31 0
BBX 31 34 0 0
BITMAP
00000000000071440000000000000000
000000000000982D1000000000000000
0000000000001E289000000000000000
00000000000006B1D300000000000000
00000000000000C55C00000000000000
000000000000003D1B60000000000000
000000000000000973D1000000000000
00000000000000000000000000000000
00000000000000000000000000000000
3B1E0D200000087693C000000E0C2A50
0E1C396000000C39578000004B1E0E10
0B48769000001E0D2B400000875A2D00
0784B2D000005A2D0E100000B3966900
03C1E0D2000086693C000001E0C2A500
00E1C3960000C3A578400004B1E0E100
00A5875A0001E0D1B484000875A2D000
00684B1E0005A2D0E178000B39669000
002C0E0C30086693C04C001E0C2A5000
000D1B48700C2A57830E104B1D0E1000
000A5785B01D0D1B492B40875A2C0000
000693C1E04A2D0E196780C386690000
0002D0E1C386693C05A3C0E0C2A50000
0000D2A48762A57821E0E181D0E10000
000096784B20D1B490C3A515A3C00000
00005A3C1E02D0E1B486690866900000
00001D0E1B4694C0884A2D0C2A500000
00000D2A578757804C1E0D1B0E100000
0000096693C31B400E1C3A533C000000
000005A2D0E10E100B48769068000000
000001E0D2B44C000784B2D0A5000000
000000C39578680003C1E0D2C1000000
00000087693C240000E1B49660000000
0000004B2D0E100000A5785A00000000
0000001E0D2A500000694B1D00000000
ENDCHAR
STARTCHAR wgrave
ENCODING 7809
SWIDTH 521 0
DWIDTH 17 0
BBX 17 18 0 0
BITMAP
0000000C4000000000
00000003D100000000
000000008900000000
000000000000000000
000000000000000000
8769001E0D200E1C30
4B2D004B2F003C1E00
1E0D20876F30784B00
0C3960C3AD70B48700
0875A1E0D6B1E0C300
04B1D5A2D0E4B1E000
00E1CC66F1BC75A000
00B48F2AE57F396000
00784D0E793E0D2000
003C1E3C2D0E3D0000
000E1BA80D2AB90000
000A58F40966F50000
000694F005A2F10000
ENDCHAR
STARTCHAR Wacute
ENCODING 7810
SWIDTH 972 0
DWIDTH 31 0
BBX 31 34 0 0
BITMAP
00000000000000054170000000000000
000000000000001E2980000000000000
00000000000000A73D10000000000000
00000000000004D0C500000000000000
0000000000000C46B000000000000000
0000000000007A1D3000000000000000
000000000001E2880000000000000000
00000000000000000000000000000000
00000000000000000000000000000000
3B1E0D200000087693C000000E0C2A50
0E1C396000000C39578000004B1E0E10
0B48769000001E0D2B400000875A2D00
0784B2D000005A2D0E100000B3966900
03C1E0D2000086693C000001E0C2A500
00E1C3960000C3A578400004B1E0E100
00A5875A0001E0D1B484000875A2D000
00684B1E0005A2D0E178000B39669000
002C0E0C30086693C04C001E0C2A5000
000D1B48700C2A57830E104B1D0E1000
000A5785B01D0D1B492B40875A2C0000
000693C1E04A2D0E196780C386690000
0002D0E1C386693C05A3C0E0C2A50000
0000D2A48762A57821E0E181D0E10000
000096784B20D1B490C3A515A3C00000
00005A3C1E02D0E1B486690866900000
00001D0E1B4694C0884A2D0C2A500000
00000D2A578757804C1E0D1B0E100000
0000096693C31B400E1C3A533C000000
000005A2D0E10E100B48769068000000
000001E0D2B44C000784B2D0A5000000
000000C39578680003C1E0D2C1000000
00000087693C240000E1B49660000000
0000004B2D0E100000A5785A00000000
0000001E0D2A500000694B1D00000000
ENDCHAR
STARTCHAR wacute
ENCODING 7811
SWIDTH 521 0
DWIDTH 17 0
BBX 17 18 0 0
BITMAP
000000008900000000
00000003D100000000
0000000C4000000000
000000000000000000
000000000000000000
8769001E0D200E1C30
4B2D004B2F003C1E00
1E0D20876F30784B00
0C3960C3AD70B48700
0875A1E0D6B1E0C300
04B1D5A2D0E4B1E000
00E1CC66F1BC75A000
00B48F2AE57F396000
00784D0E793E0D2000
003C1E3C2D0E3D0000
000E1BA80D2AB90000
000A58F40966F50000
000694F005A2F10000
ENDCHAR
STARTCHAR Wdieresis
ENCODING 7812
SWIDTH 972 0
DWIDTH 31 0
BBX 31 34 0 0
BITMAP
0000000007DEB20001AED80000000000
000000007B206D100C711A8000000000
00000000C3000A402D0001E000000000
00000000C3000B402D0001E000000000
000000006C216D100C812A8000000000
0000000007DEA20001AED80000000000
00000000000000000000000000000000
00000000000000000000000000000000
00000000000000000000000000000000
3B1E0D200000087693C000000E0C2A50
0E1C396000000C39578000004B1E0E10
0B48769000001E0D2B400000875A2D00
0784B2D000005A2D0E100000B3966900
03C1E0D2000086693C000001E0C2A500
00E1C3960000C3A578400004B1E0E100
00A5875A0001E0D1B484000875A2D000
00684B1E0005A2D0E178000B39669000
002C0E0C30086693C04C001E0C2A5000
000D1B48700C2A57830E104B1D0E1000
000A5785B01D0D1B492B40875A2C0000
000693C1E04A2D0E196780C386690000
0002D0E1C386693C05A3C0E0C2A50000
0000D2A48762A57821E0E181D0E10000
000096784B20D1B490C3A515A3C00000
00005A3C1E02D0E1B486690866900000
00001D0E1B4694C0884A2D0C2A500000
00000D2A578757804C1E0D1B0E100000
0000096693C31B400E1C3A533C000000
000005A2D0E10E100B48769068000000
000001E0D2B44C000784B2D0A5000000
000000C39578680003C1E0D2C1000000
00000087693C240000E1B49660000000
0000004B2D0E100000A5785A00000000
0000001E0D2A500000694B1D00000000
ENDCHAR
STARTCHAR wdieresis
ENCODING 7813
SWIDTH 521 0
DWIDTH 17 0
BBX 17 18 0 0
BITMAP
000000100010000000
000007F509E3000000
000006E408E2000000
000000000000000000
000000000000000000
8769001E0D200E1C30
4B2D004B2F003C1E00
1E0D20876F30784B00
0C3960C3AD70B48700
0875A1E0D6B1E0C300
04B1D5A2D0E4B1E000
00E1CC66F1BC75A000
00B48F2AE57F396000
00784D0E793E0D2000
003C1E3C2D0E3D0000
000E1BA80D2AB90000
000A58F40966F50000
000694F005A2F10000
ENDCHAR
STARTCHAR uni1E9E
ENCODING 7838
SWIDTH 784 0
DWIDTH 25 0
BBX 23 25 1 0
BITMAP
684A3C1EEEEEEEEEEEEE4000
684A3C000000000000000000
684A3C1EEEEEEEEEEEEE4000
684A3C000000000000000000
684A3C1EEEEEEEEEEEEE4000
684A3C000000000000000000
684A3C00000005B1D37A0000
684A3C0000001D37A2E20000
684A3C000000892E29700000
684A3C000002E1A73D000000
684A3C00000A73D1C5310000
684A3C00003D0C55B06D4000
684A3C0000C56B1D3533D300
684A3C0006B1D38905D43D10
684A3C001D3892E1843E1960
684A3C00000000003D3884B0
684A3C00000000000694B1D0
684A3C000000000004A2C1E0
684A3C00000000000684B2D0
684A3C00000000004D3875A0
684A3C003EEEEEEEC43D1B50
684A3C000000000027D45C00
684A3C003EEEEEEED824D200
684A3C000000000014AC2000
684A3C003EEEEEEEDB500000
ENDCHAR
STARTCHAR Ygrave
ENCODING 7922
SWIDTH 769 0
DWIDTH 25 0
BBX 25 34 0 0
BITMAP
00000000260620000000000000
000000000C46B0000000000000
0000000004D0C5000000000000
0000000000A73D100000000000
00000000002E29800000000000
000000000007A1D20000000000
000000000000D46B0000000000
00000000000000000000000000
00000000000000000000000000
5C0C54D10000000004D1B63D10
0A82D299000000001D36B1D400
01D37B1D40000000A82E289000
004C0B64D1000005C1B64D1000
000982D29900001E37B1D40000
0001D36B1D4000A82E29900000
00004C0B64D106C0C64D100000
00000982D2990D37B1D4000000
000001D36B1D413E2990000000
0000004D1B64D1864D10000000
0000000982D28911D400000000
00000001D36B1D449000000000
000000004D1B63D10000000000
00000000031130310000000000
00000000037180900000000000
0000000004A2C1E00000000000
0000000004A2C1E00000000000
0000000004A2C1E00000000000
0000000004A2C1E00000000000
0000000004A2C1E00000000000
0000000004A2C1E00000000000
0000000004A2C1E00000000000
0000000004A2C1E00000000000
0000000004A2C1E00000000000
0000000004A2C1E00000000000
ENDCHAR
STARTCHAR ygrave
ENCODING 7923
SWIDTH 422 0
DWIDTH 14 0
BBX 13 18 0 0
BITMAP
000007A0000000
000000C5000000
0000003D100000
00000000000000
00000000000000
6C0C60001D45D0
0B73E1008A1D40
02E28A03E19900
007B0D4C63E100
000C54EC0D5000
0003E1997B0000
0000991EE20000
00001302200000
00000C3A400000
00000C3A400000
00000C3A400000
00000C3A400000
00000C3A400000
ENDCHAR
STARTCHAR endash
ENCODING 8211
SWIDTH 507 0
DWIDTH 16 0
BBX 14 3 1 5
BITMAP
6EEEEEEEEEEEE9
00000000000000
6EEEEEEEEEEEE9
ENDCHAR
STARTCHAR emdash
ENCODING 8212
SWIDTH 552 0
DWIDTH 18 0
BBX 16 3 1 5
BITMAP
6EEEEEEEEEEEEEE1
0000000000000000
6EEEEEEEEEEEEEE1
ENDCHAR
STARTCHAR quoteleft
ENCODING 8216
SWIDTH 146 0
DWIDTH 5 0
BBX 4 4 0 9
BITMAP
3C00
3C02
3C1D
3C1D
ENDCHAR
STARTCHAR quoteright
ENCODING 8217
SWIDTH 146 0
DWIDTH 5 0
BBX 4 4 0 9
BITMAP
3C1D
3C1D
021D
001D
ENDCHAR
STARTCHAR quotesinglbase
ENCODING 8218
SWIDTH 146 0
DWIDTH 5 0
BBX 4 5 0 -4
BITMAP
0202
3C1D
3C1D
001D
001D
ENDCHAR
STARTCHAR quotedblleft
ENCODING 8220
SWIDTH 297 0
DWIDTH 10 0
BBX 9 4 0 9
BITMAP
3C00069000
3C02069120
3C1D0694B0
3C1D0694B0
ENDCHAR
STARTCHAR quotedblright
ENCODING 8221
SWIDTH 297 0
DWIDTH 10 0
BBX 9 4 0 9
BITMAP
3C1D0694B0
3C1D0694B0
021D0114B0
001D0004B0
ENDCHAR
STARTCHAR quotedblbase
ENCODING 8222
SWIDTH 297 0
DWIDTH 10 0
BBX 9 5 0 -4
BITMAP
0202011120
3C1D0694B0
3C1D0694B0
001D0004B0
001D0004B0
ENDCHAR
STARTCHAR bullet
ENCODING 8226
SWIDTH 302 0
DWIDTH 10 0
BBX 7 6 1 3
BITMAP
02AED800
1D611A90
5A0000E0
5A0001E0
1D712A80
02AED700
ENDCHAR
STARTCHAR ellipsis
ENCODING 8230
SWIDTH 528 0
DWIDTH 17 0
BBX 15 3 1 0
BITMAP
938501B0C0066480
B49501D0E0078590
B49501D0E0078590
ENDCHAR
STARTCHAR guilsinglleft
ENCODING 8249
SWIDTH 178 0
DWIDTH 6 0
BBX 4 7 1 3
BITMAP
0194
3D91
3523
30A4
AA10
08D1
0042
ENDCHAR
STARTCHAR guilsinglright
ENCODING 8250
SWIDTH 178 0
DWIDTH 6 0
BBX 4 7 1 3
BITMAP
8500
2CA1
5161
8612
03C5
5D50
4200
ENDCHAR
STARTCHAR fraction
ENCODING 8260
SWIDTH 362 0
DWIDTH 12 0
BBX 11 13 0 0
BITMAP
0000000A64C0
0000003D0C40
000000B55B00
000005C0D300
00000D37A000
00006A1E2000
0001D2880000
000892E10000
001E1A700000
00973D000000
02D1B5000000
0A65C0000000
4C0D40000000
ENDCHAR
STARTCHAR uni2074
ENCODING 8308
SWIDTH 204 0
DWIDTH 7 0
BBX 6 6 0 7
BITMAP
008670
029A10
097600
1CC678
000478
1CC678
ENDCHAR
STARTCHAR Euro
ENCODING 8364
SWIDTH 462 0
DWIDTH 15 0
BBX 14 13 0 0
BITMAP
000006BEEDA500
0003DA41015BB1
002D529DED8167
00C63D61028C00
00201100000100
CEEEEEE5000000
00000000000000
CEEEEEE5000000
00201100000100
00A63E72028C00
002D529DED8167
0002DA41015BB1
000006BEEDA500
ENDCHAR
STARTCHAR trademark
ENCODING 8482
SWIDTH 461 0
DWIDTH 15 0
BBX 14 6 0 7
BITMAP
AEEEE759500577
00000059964B77
008600592DD377
00860059045077
00860059000077
00860059000077
ENDCHAR
STARTCHAR minus
ENCODING 8722
SWIDTH 420 0
DWIDTH 13 0
BBX 12 3 1 5
BITMAP
AFFFFFFFFFF2
000000000000
AFFFFFFFFFF2
ENDCHAR
STARTCHAR uni2215
ENCODING 8725
SWIDTH 278 0
DWIDTH 9 0
BBX 8 13 1 0
BITMAP
0000D396
0003D0E1
000884B0
000D3960
003D0E10
00874B00
00D29600
03C0E100
0874B000
0D296000
3C0E1000
874B0000
D2960000
ENDCHAR
STARTCHAR .notdef
ENCODING -1
SWIDTH 500 0
DWIDTH 16 0
BBX 14 36 1 -7
BITMAP
6FFFFFFFFFFFF6
6FA99999999AF6
6F3000000003F6
6F3000000003F6
6F3000000003F6
6F3000000003F6
6F3000000003F6
6F3000000003F6
6F3000000003F6
6F3000000003F6
6F3000000003F6
6F3000000003F6
6F3000000003F6
6F3000000003F6
6F3000000003F6
6F3000000003F6
6F3000000003F6
6F3000000003F6
6F3000000003F6
6F3000000003F6
6F3000000003F6
6F3000000003F6
6F3000000003F6
6F3000000003F6
6F3000000003F6
6F3000000003F6
6F3000000003F6
6F3000000003F6
6F3000000003F6
6F3000000003F6
6F3000000003F6
6F3000000003F6
6F3000000003F6
6F3000000003F6
6FA99999999AF6
6FFFFFFFFFFFF6
ENDCHAR
STARTCHAR NULL
ENCODING -1
SWIDTH 600 0
DWIDTH 19 0
BBX 1 1 0 0
BITMAP
00
ENDCHAR
STARTCHAR acutecomb.case
ENCODING -1
SWIDTH 0 0
DWIDTH 0 0
BBX 8 7 1 27
BITMAP
00005327
0002E1A7
000B64D0
005C0D40
01D37A00
0891E200
2E1A7000
ENDCHAR
STARTCHAR ampersand.case
ENCODING -1
SWIDTH 797 0
DWIDTH 26 0
BBX 23 25 1 0
BITMAP
00000005ADEEC71000000000
000002CCDEEEDBD500000000
00001D7D82015D7D50000000
0000A6B53BEC52D3D1000000
0002D3C0D503D38787000000
00059593C00077595A000000
000785A3C00096684A000000
000692D0D407D1C478000000
0003C0B55D172AA1D2000000
0000D33D1A90C82C70000000
00006B08A1D507E600000000
00065C60C63E241000000000
01AB22D22E37C00000000000
0A91895C15D1A80000B40000
4C0AB12890991D5009A1C100
B56C1BB0B60C63E24B1A8290
E1B489001D32E37C019A1C50
E0D1C30003D15D1A8081A800
F1C2B500006B0991D408A000
C4874D51023A80C63E230000
6A1D43ADEC81C52E36C00000
0C63D93102593D25D1A80000
01D716BDEDA505D19A1D4000
001AC6200137C48A1C63E200
000039CEEEC8300B72E36C00
ENDCHAR
STARTCHAR asciicircum.case
ENCODING -1
SWIDTH 540 0
DWIDTH 17 0
BBX 17 14 0 12
BITMAP
000000003000000000
00000001E100000000
000000098200000000
0000003D1A40000000
000000B54C11000000
000005C0D45A000000
00001D37A10D300000
0000891E2864C00000
0002E1A702D1B60000
000B64D000882D1000
004C0C40001D289000
00D46A000006B1D300
07A1D2000000C45B00
2E29800000003D0C50
ENDCHAR
STARTCHAR asciitilde.case
ENCODING -1
SWIDTH 640 0
DWIDTH 20 0
BBX 18 7 1 10
BITMAP
039DEEDA5000000003
5C620025AD831015AC
149DEEDA527BDEEB62
5C620025AD8410149C
139DEEDA527BDEDB62
5D720025AD8310149C
21000000027BDEEB61
ENDCHAR
STARTCHAR asterisk.case
ENCODING -1
SWIDTH 482 0
DWIDTH 15 0
BBX 13 12 1 13
BITMAP
00000C2B400000
00000C2B400000
05510C2B403700
049E70002EB710
28301000011660
27CD000007E940
00020000020000
000A70001D2000
006C1B2A36C000
00B28A04D19300
0002D100880000
00001000010000
ENDCHAR
STARTCHAR at.case
ENCODING -1
SWIDTH 915 0
DWIDTH 29 0
BBX 28 25 1 0
BITMAP
00000000159CDEEDC85100000000
00000028EDDEEEEDDCBD81000000
000006EACC73100137CB8D500000
00009C8E500000000004C7A90000
0008B8C20000000000001B798000
006C6D10003ADEDAB66800C5B500
01D4D30009C62014C768002D2D10
07979000A917CED8976800096860
0C3C3006B1C92017F7680004B3B0
2E2D000C3880000097680001E0E0
5A4B002D0E10000087680000E0D1
695A004A2C00000087680000D1C3
785A004B2C00000087680000E1C2
694B002D0E10000087680002D0E1
5A2E000C388000009759000792D0
2E0C3005B1B92027F82D305D2880
0C47A000A917CEC86D14CEC33D10
07A0D30009C62015CED52027E400
01D34D100039CEDA506BEED92000
005D17C200000000000000000000
0008C15D60000000002200000000
00009D22AD8420025AE500000000
000006E8127BDEEC951340000000
00000029EA62100136BC50000000
00000000159CDEEDB83000000000
ENDCHAR
STARTCHAR backslash.case
ENCODING -1
SWIDTH 504 0
DWIDTH 16 0
BBX 16 29 0 -2
BITMAP
884B1E1000000000
3D0E2A5000000000
0C3975A000000000
0783C1E100000000
02D0D2A600000000
00C3875B00000000
00793C0E10000000
002E0D2960000000
000B4884B0000000
000693D0E2000000
0001E0C397000000
0000B4784C000000
00006A2D0D200000
00001E1C38700000
00000A5793C00000
000005A2D0D20000
000001E1B4880000
000000A5693D0000
0000005B1E0D3000
0000000E1B478000
000000096692D000
00000004B1E0C300
00000000E1A57900
00000000965A2E00
000000004C1E1C40
000000000D2A5690
000000000875A1E0
0000000003C0E1B4
0000000000D2966A
ENDCHAR
STARTCHAR bar.case
ENCODING -1
SWIDTH 262 0
DWIDTH 8 0
BBX 6 29 1 -2
BITMAP
684A3C
684A3C
684A3C
684A3C
684A3C
684A3C
684A3C
684A3C
684A3C
684A3C
684A3C
684A3C
684A3C
684A3C
684A3C
684A3C
684A3C
684A3C
684A3C
684A3C
684A3C
684A3C
684A3C
684A3C
684A3C
684A3C
684A3C
684A3C
684A3C
ENDCHAR
STARTCHAR braceleft.case
ENCODING -1
SWIDTH 504 0
DWIDTH 16 0
BBX 14 29 1 -2
BITMAP
000086684A3EE8
000087684A0000
000087684A3EE8
000087684A0000
000087684A3EE8
000087684A0000
000087684A0000
000087684A0000
000087684A0000
000087684A0000
000087684A0000
000087684A0000
6EE587684A0000
000087684A0000
6EE587684A0000
000087684A0000
6EE587684A0000
000087684A0000
000087684A0000
000087684A0000
000087684A0000
000087684A0000
000087684A0000
000087684A0000
000087684A3EE8
000087684A0000
000087684A3EE8
000087684A0000
000086684A3EE8
ENDCHAR
STARTCHAR braceright.case
ENCODING -1
SWIDTH 506 0
DWIDTH 16 0
BBX 14 29 1 -1
BITMAP
5EE577594A0000
000077594B0000
5EE577594B0000
000077594B0000
5EE577594B0000
000077594B0000
000077594B0000
000077594B0000
000077594B0000
000077594B0000
000077594B0000
000077594B0000
000077594B2EE8
000077594B0000
000077594B2EE8
000077594B0000
000077594B2EE8
000077594B0000
000077594B0000
000077594B0000
000077594B0000
000077594B0000
000077594B0000
000077594B0000
5EE577594B0000
000077594B0000
5EE577594B0000
000077594B0000
5EE577594B0000
ENDCHAR
STARTCHAR bracketleft.case
ENCODING -1
SWIDTH 453 0
DWIDTH 15 0
BBX 12 29 1 -2
BITMAP
684A3C1EEEED
684A3C000000
684A3C1EEEED
684A3C000000
684A3C1EEEED
684A3C000000
684A3C000000
684A3C000000
684A3C000000
684A3C000000
684A3C000000
684A3C000000
684A3C000000
684A3C000000
684A3C000000
684A3C000000
684A3C000000
684A3C000000
684A3C000000
684A3C000000
684A3C000000
684A3C000000
684A3C000000
684A3C000000
684A3C1EEEED
684A3C000000
684A3C1EEEED
684A3C000000
684A2B1EEEED
ENDCHAR
STARTCHAR bracketright.case
ENCODING -1
SWIDTH 453 0
DWIDTH 15 0
BBX 12 29 1 -1
BITMAP
6EEEE84A2B1D
0000004A3C1E
6EEEE84A3C1E
0000004A3C1E
6EEEE84A3C1E
0000004A3C1E
0000004A3C1E
0000004A3C1E
0000004A3C1E
0000004A3C1E
0000004A3C1E
0000004A3C1E
0000004A3C1E
0000004A3C1E
0000004A3C1E
0000004A3C1E
0000004A3C1E
0000004A3C1E
0000004A3C1E
0000004A3C1E
0000004A3C1E
0000004A3C1E
0000004A3C1E
0000004A3C1E
6EEEE84A3C1E
0000004A3C1E
6EEEE84A3C1E
0000004A3C1E
6EEEE84A3C1D
ENDCHAR
STARTCHAR brokenbar.case
ENCODING -1
SWIDTH 262 0
DWIDTH 8 0
BBX 6 29 1 0
BITMAP
684A3C
684A3C
684A3C
684A3C
684A3C
684A3C
684A3C
684A3C
684A3C
684A3C
684A3C
684A3C
684A3C
000000
000000
000000
684A3C
684A3C
684A3C
684A3C
684A3C
684A3C
684A3C
684A3C
684A3C
684A3C
684A3C
684A3C
684A3C
ENDCHAR
STARTCHAR bullet.case
ENCODING -1
SWIDTH 503 0
DWIDTH 16 0
BBX 14 13 1 6
BITMAP
00016CEEC71000
002D931039D300
01D53AEEB34D20
0A74D5004D55B0
1E1D400003E1D2
4A3C000000B496
694A0000009687
4A3C000000B496
1E1D400003E1D2
0A73D5105D46B0
01D53ADEB34D20
002D931139D300
00016BDEC71000
ENDCHAR
STARTCHAR uni0327.case
ENCODING -1
SWIDTH 0 0
DWIDTH 0 0
BBX 8 8 1 -7
BITMAP
00036000
000D6000
007C0000
01EDED80
05A302A7
0000004B
293003B6
05BEEC60
ENDCHAR
STARTCHAR cent.case
ENCODING -1
SWIDTH 577 0
DWIDTH 18 0
BBX 17 29 1 -2
BITMAP
00000001E0E0000000
00000001E0E0000000
00000001E0E0000000
00000001E0E0000000
00000001E0E0000000
0000017BDEEC940000
00006E9410126CC200
0009C239DEEC716D10
007B19C620149D4000
03D1A917CEEA334000
0A55B1C92015D10000
1E0C39800000000000
3B1D1E100000000000
5A3B3B000000000000
5A3B3B000000000000
3B1D1E100000000000
1E0C39800000000000
0A55B1C92015D10000
03D1A917CEEA344000
007B19C620149D4100
0009C239CEEB716D10
00005D9410126CC200
0000016BDEEC940000
000000000000000000
00000001E0E0000000
00000001E0E0000000
00000001E0E0000000
00000001E0E0000000
00000001E0E0000000
ENDCHAR
STARTCHAR uni0302.case
ENCODING -1
SWIDTH 0 0
DWIDTH 0 0
BBX 14 7 1 27
BITMAP
00000631710000
00005D1A811000
0002E36C05B000
000C63E251A700
008A1D50991D40
04D1A9000C53D1
2E36C00002E27B
ENDCHAR
STARTCHAR colon.case
ENCODING -1
SWIDTH 262 0
DWIDTH 8 0
BBX 6 17 1 0
BITMAP
684A3C
684A3C
684A3C
684A3C
684A3C
000000
000000
000000
000000
000000
000000
000000
684A3C
684A3C
684A3C
684A3C
684A3C
ENDCHAR
STARTCHAR comma.case
ENCODING -1
SWIDTH 338 0
DWIDTH 11 0
BBX 9 8 1 -3
BITMAP
004B1E0E10
0087693C00
00D2A57800
02D0E1B400
0693C1E000
0A5785A000
0E1C396000
4B1E0D2000
ENDCHAR
STARTCHAR copyright.case
ENCODING -1
SWIDTH 895 0
DWIDTH 29 0
BBX 27 25 1 0
BITMAP
0000000037BDEEDCA51000000000
0000004CDDDEEEEEDDE920000000
00001ADBDA5210137CCBE6000000
0002D9CA20000000005D9C900000
002D7D70000000000001B9A90000
00C7C700004ADEEB61001C7C6000
06B7A0001AC620149D3002E4E100
1E3E2000B817CED923A000798900
5B5A0007A1C93016D200001E2E10
A6A6000D297000001000000B4B50
D2C3002C0E000000000000096880
E1D2003B2D0000000000000786A0
F0D2002D0E0000000000000785A0
E1C3000D297000001000000966A0
D2960007A1CA3016D200000B4880
A65B0000B817CED923A0001E0B50
5B1E20001AC620149D3000891E10
1E27A0000049DEDB600002E28900
06B0C7000000000000001C62E100
00C71D70000000000001B91C6000
002D51BA20000000005D70A90000
0003D806DA6210137CB32CA00000
00001BC4159CEEDB8317E6000000
0000004CC84200125AE920000000
0000000037BDEEECA51000000000
ENDCHAR
STARTCHAR currency.case
ENCODING -1
SWIDTH 676 0
DWIDTH 22 0
BBX 20 19 1 1
BITMAP
000880000000001C2000
0061B800000001C71500
01B91B8000001C71D600
791B91400000051D62C2
0AA1A317CEEB50872D60
00AA02D93014CA01D500
00031D52BED81A803000
00006A2E5119B1E10000
0000A5880000D3A50000
0000C3A50000A5870000
0000A5880000D3A50000
00006A2E6129B1E10000
00431D52AED81A807100
04E312D93014CA017C10
5D35D017CEDB504D26D2
925D254000000925D255
04D26D20000005D25D00
0026D2000000005D3200
00082000000000055000
ENDCHAR
STARTCHAR degree.case
ENCODING -1
SWIDTH 413 0
DWIDTH 13 0
BBX 12 11 1 14
BITMAP
0029DEDA3000
05E72015D700
3E34CEC61C50
A65D402C83D0
E1C40001E0D2
F0E20000D1C3
E1C40001E0D2
A75D403C73D0
2E34BEC61D50
04D72016D700
0028DED93000
ENDCHAR
STARTCHAR uni0308.case
ENCODING -1
SWIDTH 0 0
DWIDTH 0 0
BBX 16 6 1 28
BITMAP
03BED600006DEB30
1D502C6005C204D2
5A0003B00A500096
5A0003B00A500096
1D602C6005D305D1
02BED600006CEB30
ENDCHAR
STARTCHAR divide.case
ENCODING -1
SWIDTH 618 0
DWIDTH 20 0
BBX 18 17 1 4
BITMAP
00000001AE90000000
0000000891B5000000
0000000B4078000000
0000000891C5000000
00000001AE80000000
000000000000000000
6EEEEEEEEEEEEEEEE2
000000000000000000
6EEEEEEEEEEEEEEEE2
000000000000000000
6EEEEEEEEEEEEEEEE2
000000000000000000
00000001AE90000000
0000000891B5000000
0000000B4078000000
0000000891B5000000
00000001AE90000000
ENDCHAR
STARTCHAR uni2215.case
ENCODING -1
SWIDTH 483 0
DWIDTH 15 0
BBX 15 25 0 0
BITMAP
000000003C0E1B40
00000000975B1E00
00000000D2A56900
00000004C1E1C400
0000000965A2D000
0000000E1B579000
0000004B1E0C3000
000000A6692D0000
000001E1B4880000
000005B1E0D30000
00000A5693D00000
00001E1C48700000
00006A2D0D200000
0000B5783C000000
0001E0C397000000
000692D0E2000000
000B4884B0000000
002E0D3960000000
00793C0E10000000
00C4875B00000000
02D0D2A600000000
0783C1E100000000
0C3975A000000000
3D0E2A5000000000
884B1E1000000000
ENDCHAR
STARTCHAR dollar.case
ENCODING -1
SWIDTH 660 0
DWIDTH 21 0
BBX 20 29 1 -2
BITMAP
00000001E0E000000000
00000001E0E000000000
00000141E0E041000000
0002AD81E0E08EB30000
006D6021E0E0217E6000
06C14CA1E0E0AD42D600
2D17D311E0E003D62E20
874D18B1E0E0B61D3880
C2A56A01E0E01C569270
D1C3A501E0E004611000
C3965D4050C000000000
883D34BD840000000000
1D34D8127BEA50000000
03D517DA6115AD810000
002BB4049DC8318D5000
00004AD84026CC42C700
00000016AEA613C81C40
000000002049D81A74C0
00000001E08019A2D0E1
00006101E0E001E0E1C2
60C29801E0E005B1E0D1
C3891C91E0E08C2892D0
6B1C8031E0E0418C1A70
0B819D61E0E07D907B00
01BB2251E0E05119B100
0006DB51E0E05AD60000
00000571E0E064000000
00000001E0E000000000
00000001E0E000000000
ENDCHAR
STARTCHAR eight.case
ENCODING -1
SWIDTH 561 0
DWIDTH 18 0
BBX 16 25 1 0
BITMAP
00004ADEECA40000
002CCCEEEECCB200
03E8D820039C8D20
1D6D43BEEA26C6C0
6A782D5116D1B5B5
C4C396000097595A
E1D1B30000593B2C
E0D2A50000694A1D
E0963D5000B4783C
B43E23BD8320D278
4C04D7126CC521E2
09A018DA513BB230
018C40059E916D20
2D03AC72017D35D0
874C037BC603D1A5
D2A65A0017C0885A
E0D2A40000874B2C
E0D1B30000593B2D
E1C396000087593B
B5782D5116D1A578
5B1D43BEDA26C1D2
0C53D820039C28A0
02D617CEEC618C10
002CB520026CA100
00005ADFEDA40000
ENDCHAR
STARTCHAR ellipsis.case
ENCODING -1
SWIDTH 766 0
DWIDTH 25 0
BBX 22 5 1 0
BITMAP
684A3C00593B2D004A2C1E
684A3C00593B2D004A2C1E
684A3C00593B2D004A2C1E
684A3C00593B2D004A2C1E
684A3C00593B2D004A2C1E
ENDCHAR
STARTCHAR emdash.case
ENCODING -1
SWIDTH 790 0
DWIDTH 25 0
BBX 23 5 1 10
BITMAP
6EEEEEEEEEEEEEEEEEEEEEA0
000000000000000000000000
6EEEEEEEEEEEEEEEEEEEEEA0
000000000000000000000000
6EEEEEEEEEEEEEEEEEEEEEA0
ENDCHAR
STARTCHAR endash.case
ENCODING -1
SWIDTH 721 0
DWIDTH 23 0
BBX 21 5 1 10
BITMAP
6EEEEEEEEEEEEEEEEEEE70
0000000000000000000000
6EEEEEEEEEEEEEEEEEEE70
0000000000000000000000
6EEEEEEEEEEEEEEEEEEE70
ENDCHAR
STARTCHAR equal.case
ENCODING -1
SWIDTH 618 0
DWIDTH 20 0
BBX 18 14 1 6
BITMAP
6EEEEEEEEEEEEEEEE2
000000000000000000
6EEEEEEEEEEEEEEEE2
000000000000000000
6EEEEEEEEEEEEEEEE2
000000000000000000
000000000000000000
000000000000000000
000000000000000000
6EEEEEEEEEEEEEEEE2
000000000000000000
6EEEEEEEEEEEEEEEE2
000000000000000000
6EEEEEEEEEEEEEEEE2
ENDCHAR
STARTCHAR Euro.case
ENCODING -1
SWIDTH 767 0
DWIDTH 25 0
BBX 24 25 0 0
BITMAP
000000000048CDEEDC951000
000000005DCCDEEEDCAAD910
0000001BB9DA410025AC57D4
000002D79B239DEEC823C710
00000C59A19D620027D71700
0000895C1AA00000001B4000
0001E1D27A00000000000000
000784A1D200000000000000
000000000000000000000000
AEEEEEEEEEEEEEEE10000000
000000000000000000000000
000000000000000000000000
AEEEEEEEEEEEEEEE10000000
AEEEEEEEEEEEEEEE10000000
000000000000000000000000
00065481B000000000000000
0004B1D1B600000000000000
0000D2872D20000000021000
00006A1D36D20000003D4000
00000C44D25E830139D42800
000003D34D418CEEC714D610
0000004D32CB520126BC32D4
00000004D8049CEEC9407D50
000000001AD84100148D9200
000000000027BEEEDB620000
ENDCHAR
STARTCHAR exclam.case
ENCODING -1
SWIDTH 262 0
DWIDTH 8 0
BBX 6 25 1 0
BITMAP
684A3C
684A3C
684A3C
684A3C
684A3C
684A3C
684A3C
684A3C
684A3C
684A3C
684A3C
684A3C
684A3C
684A3C
684A3C
684A3C
684A3C
684A3C
221313
000000
684A3C
684A3C
684A3C
684A3C
684A3C
ENDCHAR
STARTCHAR exclamdown.case
ENCODING -1
SWIDTH 262 0
DWIDTH 8 0
BBX 6 25 1 -5
BITMAP
684A3C
684A3C
684A3C
684A3C
684A3C
000000
221313
684A3C
684A3C
684A3C
684A3C
684A3C
684A3C
684A3C
684A3C
684A3C
684A3C
684A3C
684A3C
684A3C
684A3C
684A3C
684A3C
684A3C
684A3C
ENDCHAR
STARTCHAR five.case
ENCODING -1
SWIDTH 558 0
DWIDTH 18 0
BBX 16 25 1 0
BITMAP
4EEEEEEEEEEEEEE3
4EEEEEEEEEEEEEE3
0000000000000000
4EEEEEEEEEEEEEE3
0000000000000000
0000000000000000
4A3C1D0000000000
4A3C1D0000000000
4A3C1D0000000000
4A3C1D0EED930000
4A3C1D00127D9000
4A3C1D0000009C00
4A3C1D0EEC710990
4A3C1D0EEDAD31D2
4A3C1D0117D5D187
000000000096964B
0000000000594A2D
A091820000593B2D
E1C3960000964A4B
B4782D5117D09688
5B1D43BEEA25C1D2
0C53D820039D2990
02D617CEEC718C00
002CB520026DA100
00005ADFED940000
ENDCHAR
STARTCHAR four.case
ENCODING -1
SWIDTH 585 0
DWIDTH 19 0
BBX 18 25 0 0
BITMAP
00000000A65B1D2000
00000002D0C4790000
0000000A65B1D20000
0000002D0C47900000
000000A65B1D200000
000002D0C479000000
00000A65B1D2000000
00002D0C4790000000
0000A65B1D20000000
0002D0C47900000000
000A65B1D200000000
002D0C479000000000
00A65B1D2694B2C000
02D0C4790694B2C000
055280820694B2C000
000000000694B2C000
1EEEEEEE6694B2C0EB
000000000694B2C000
1EEEEEEE6694B2C0EB
000000000694B2C000
1EEEEEEE6694B2C0EB
000000000694B2C000
000000000694B2C000
000000000694B2C000
000000000694B2C000
ENDCHAR
STARTCHAR uni2074.case
ENCODING -1
SWIDTH 312 0
DWIDTH 10 0
BBX 9 12 0 13
BITMAP
0002E1B500
000973C000
002E1B5000
00883D0000
01E1A60000
0892D00000
000001E0E0
1EEEB1E0E0
000001E0E0
1EEEB1E0E0
000001E0E0
000001E0E0
ENDCHAR
STARTCHAR fraction.case
ENCODING -1
SWIDTH 655 0
DWIDTH 21 0
BBX 19 25 1 0
BITMAP
000000000000006A1D20
00000000000001D29800
0000000000000883D100
0000000000002D1B5000
000000000000A65C0000
000000000004C0D30000
00000000000C47A00000
00000000006A1E200000
0000000001D298000000
000000000883D1000000
000000002D1B60000000
00000000A64C00000000
00000004C0D300000000
0000000C47A000000000
0000006A1D2000000000
000001D2980000000000
00000882D10000000000
00002D1B600000000000
0000A64C000000000000
0004C0D3000000000000
000C47A0000000000000
006A1D20000000000000
01D29800000000000000
0882D100000000000000
2D1B6000000000000000
ENDCHAR
STARTCHAR gravecomb.case
ENCODING -1
SWIDTH 0 0
DWIDTH 0 0
BBX 8 7 1 27
BITMAP
26063000
0C55C000
03D1B600
00983D10
001E2890
0006A1D3
0000C45B
ENDCHAR
STARTCHAR greater.case
ENCODING -1
SWIDTH 677 0
DWIDTH 22 0
BBX 20 22 1 2
BITMAP
A7000000000000000000
19D40000000000000000
613CB200000000000000
6E706D81000000000000
12AD418D600000000000
A913CB22AC4000000000
18E706D914DA20000000
002AD418D607E8100000
00004CB22BC419D50000
0000006E814DA23BC300
000000019D607E815D91
0000000423BC419D5140
000002BC3115DA237000
00019E606D6007900000
006E814CA23B80000000
4CB22AC419E600000000
9518E606E81000000000
05D914CB200000000000
9B32AD40000000000000
318E7000000000000000
5D910000000000000000
83000000000000000000
ENDCHAR
STARTCHAR guillemotleft.case
ENCODING -1
SWIDTH 666 0
DWIDTH 21 0
BBX 19 18 1 4
BITMAP
00000000000000000010
0000002C200000000690
000005E600000001BB20
00019C232000004D7040
003D806E200008D32C80
02D41BB200009915E600
4303D7083007009C2380
3D7032CA100AC2207E40
12BB156000016E618200
6917D500000C42CA1000
19D33D910004D818D400
315D719D10051AC24D60
4D41BB15200BA16E6150
03D917D500008D32CA10
0019C33D200004D80890
00005E611000001AC210
000002BB100000006E50
00000007200000000270
ENDCHAR
STARTCHAR guillemotright.case
ENCODING -1
SWIDTH 666 0
DWIDTH 21 0
BBX 19 18 1 4
BITMAP
10000000000100000000
5A100000000B40000000
08D300000003D8000000
314D7000000419C20000
4D41AB20000BA15D6000
03D916C100008D32B600
5619C204200A24D70160
2CA1319D1007E5124D70
00733D9110003708D410
0007D51B300002CA16A0
01BB25D700005E61AC20
3D719D332009C24D8040
333D916E200618D42C80
07D51BB20002CA15E600
5B24D700000C61AC2000
119D300000013D800000
2C9100000007D4000000
45000000000810000000
ENDCHAR
STARTCHAR guilsinglleft.case
ENCODING -1
SWIDTH 338 0
DWIDTH 11 0
BBX 9 17 1 4
BITMAP
0000002C20
000005E600
00019C2320
003D806E20
02D41BB200
4303D70830
3D7032CA10
12BB156000
6917D50000
19D33D9100
315D719D10
4D41BB1520
03D917D500
0019C33D20
00005E6110
000002BB10
0000000720
ENDCHAR
STARTCHAR guilsinglright.case
ENCODING -1
SWIDTH 338 0
DWIDTH 11 0
BBX 9 18 1 4
BITMAP
1000000000
5A10000000
08D3000000
314D700000
4D41AB2000
03D916C100
5619C20420
2CA1319D10
00733D9110
0007D51B30
01BB25D700
3D719D3320
333D916E20
07D51BB200
5B24D70000
119D300000
2C91000000
4500000000
ENDCHAR
STARTCHAR hyphen.case
ENCODING -1
SWIDTH 445 0
DWIDTH 14 0
BBX 12 5 1 10
BITMAP
6EEEEEEEEEE9
000000000000
6EEEEEEEEEE9
000000000000
6EEEEEEEEEE9
ENDCHAR
STARTCHAR less.case
ENCODING -1
SWIDTH 677 0
DWIDTH 22 0
BBX 20 22 1 2
BITMAP
00000000000000000065
00000000000000004CB2
000000000000002AD512
00000000000017E706D4
000000000005DA13CB30
0000000003BC319D5175
000000019D607E705D91
0000001C815DA23BC300
00002B400BC319D60000
002714DA2207E8100000
1419D607E81420000000
3CB22BC419D600000000
006D815DA23BC3000000
00018D607E715DA20000
000002BC419D517E7000
00000004DA23BB32AD50
0000000007E715D913C5
000000000019D518E701
0000000000003BB32AD3
000000000000005D9144
00000000000000018D60
000000000000000002A6
ENDCHAR
STARTCHAR logicalnot.case
ENCODING -1
SWIDTH 618 0
DWIDTH 20 0
BBX 18 11 1 4
BITMAP
6EEEEEEEEEEEEEEEE2
000000000000000000
6EEEEEEEEEEEEEEEE2
000000000000000000
6EEEEEEEEEEEEEEEE2
000000000000000000
000000000000E0D1C3
000000000000E0D1C3
000000000000E0D1C3
000000000000E0D1C3
000000000000E0D1C3
ENDCHAR
STARTCHAR uni00B5.case
ENCODING -1
SWIDTH 792 0
DWIDTH 25 0
BBX 24 32 1 -7
BITMAP
684A3C000000005A3B1D0000
684A3C000000005A3B1D0000
684A3C000000005A3B1D0000
684A3C000000005A3B1D0000
684A3C000000005A3B1D0000
684A3C000000005A3B1D0000
684A3C000000005A3B1D0000
684A3C000000005A3B1D0000
684A3C000000005A3B1D0000
684A3C000000005A3B1D0000
684A3C000000005A3B1D0000
684A3C000000005A3B1D0000
684A3C000000005A3B1D0000
684A3C000000005A3B1D0000
684A3C000000005A3B1D0000
684A3C000000005A3B1D0000
684A3C00000000684A2C0000
684A3C00000000A5784A0000
684A3C00000003D1C3872000
684A3C1B41026D46B0D28920
684A3C05BDED825D289117C9
684A3C1731025BC25D15C510
684A3C07CEEDA508D2623AD9
684A3C06200037DA105E9410
684A3C09DEEEC83000017BE9
684A3C000000000000000000
684A3C000000000000000000
684A3C000000000000000000
684A3C000000000000000000
684A3C000000000000000000
684A3C000000000000000000
684A3C000000000000000000
ENDCHAR
STARTCHAR minus.case
ENCODING -1
SWIDTH 618 0
DWIDTH 20 0
BBX 18 5 1 10
BITMAP
6EEEEEEEEEEEEEEEE2
000000000000000000
6EEEEEEEEEEEEEEEE2
000000000000000000
6EEEEEEEEEEEEEEEE2
ENDCHAR
STARTCHAR multiply.case
ENCODING -1
SWIDTH 580 0
DWIDTH 19 0
BBX 16 16 1 5
BITMAP
0002100000021000
0006C100002D4000
00C37C1002D52900
244D37C02D52D521
3D44D322D52D52D4
03D4452D52D52D50
003D12D52D52D500
00012D52D52D5000
0002D52D52D50000
002D52D52D51B100
02D52D52D5237C10
2D52D52D504D37C1
142D52D50C44D375
00A52D5003D44D10
0002D500003D4100
0001400000035000
ENDCHAR
STARTCHAR nine.case
ENCODING -1
SWIDTH 558 0
DWIDTH 18 0
BBX 16 25 1 1
BITMAP
00005ADEEC930000
001BC620026CB100
01D718CEEB617D10
0B74D720039C27B0
4C2D33BEEA26C0C4
A6871D6116D1B569
D1C287000087593C
E0D1B30000593B1D
E0C2B300004A3C1E
D1878700004A3C1E
A52D4E51124A3C1E
4C04DADEE74A3C1E
0B7028DEE74A3C1E
01D70000004A3C1E
001BC620014A3C1E
00005ADEE84A3C1E
00000000004A3C1E
00000000004A3C1D
8070610000593B3C
D1C296000087596A
A6873D4116D1A5C4
3D3D33BEEA26C7B0
06C6D720039C8D10
005DBCEEEECCB100
00016BDEEC940000
ENDCHAR
STARTCHAR numbersign.case
ENCODING -1
SWIDTH 776 0
DWIDTH 25 0
BBX 23 25 1 0
BITMAP
000002D0E0D1000B39587000
000004B2C1E0000D1C3A4000
00000684A3C0001E0E0C2000
000008678590003B1D0E0000
00000B495770000000000000
01ED0D1B3A58EEEEEEEEEE30
00000E0E1C20000000000000
01E83C1D0E0CEEEEEEEEEE30
0000593B2D00000000000000
01E477694A2EEEEEEEEEEE30
000095866800000000000000
0000C3A48600055463800000
0000A0927300095776900000
0000000000000B3A58700000
6EEEEEEEEEEE0D1C2A47D000
0000000000001E0E0C200000
6EEEEEEEEEEA3B1D0E0CD000
000000000000594B2D000000
6EEEEEEEEEE687684A2ED000
000000000000A48678000000
002C1E0E1000C2A496000000
005A3C1D0000E0D2B3000000
0077594B0002D0E0D1000000
009587680004A2C1E0000000
00C3A486000685A3C0000000
ENDCHAR
STARTCHAR one.case
ENCODING -1
SWIDTH 378 0
DWIDTH 12 0
BBX 11 25 0 0
BITMAP
7EEE2A496780
00000A496780
7EEE2A496780
00000A496780
7EEE2A496780
00000A496780
00000A496780
00000A496780
00000A496780
00000A496780
00000A496780
00000A496780
00000A496780
00000A496780
00000A496780
00000A496780
00000A496780
00000A496780
00000A496780
00000A496780
00000A496780
00000A496780
00000A496780
00000A496780
00000A496780
ENDCHAR
STARTCHAR onehalf.case
ENCODING -1
SWIDTH 735 0
DWIDTH 24 0
BBX 21 25 1 0
BITMAP
6EE0D1C300000002D1B500
0000D1C30000000B65C000
6EE0D1C30000004C0D3000
0000D1C3000000C47A0000
0000D1C3000006A1E20000
0000D1C300001D29800000
0000D1C30000883D100000
0000D1C30002D1B5000000
0000D1C3000B65C0000000
0000D1C3004C0D30000000
0000C1B300C47A00000000
0000000006A1E200000000
000000001D298000000000
00000000883D1000000000
00000002D1B5002AEEC400
0000000B65C000C7104D50
0000004C0D3005A2CE64C0
000000C47A00065474C1D0
000006A1D20000002C55A0
00001D2980000003D52D30
0000882D1000005D34D400
0002D1B600000031021000
000B64C000000BEEEEEEB0
004C0D3000000000000000
00C47A0000000BEEEEEEB0
ENDCHAR
STARTCHAR onequarter.case
ENCODING -1
SWIDTH 722 0
DWIDTH 23 0
BBX 21 26 1 -1
BITMAP
6EE0D1C300000002D1B500
0000D1C30000000B65C000
6EE0D1C30000004C0D3000
0000D1C3000000C47A0000
0000D1C3000006A1E20000
0000D1C300001D29800000
0000D1C30000883D100000
0000D1C30002D1B5000000
0000D1C3000B65C0000000
0000D1C3004C0D30000000
0000C1B300C47A00000000
0000000006A1E200000000
000000001D298000000000
00000000883D1000000000
00000002D1B5000974C000
0000000B65C0002E1B5000
0000004C0D3000983C0000
000000C47A0001E1B50000
000006A1D2000883D00000
00001D2980001E1A600000
0000882D10000000086780
0002D1B600008EEE486780
000B64C000000000086780
004C0D3000008EEE486780
00C47A0000000000086780
0000000000000000086780
ENDCHAR
STARTCHAR uni00B9.case
ENCODING -1
SWIDTH 306 0
DWIDTH 10 0
BBX 8 11 1 14
BITMAP
6EE0D1C3
0000D1C3
6EE0D1C3
0000D1C3
0000D1C3
0000D1C3
0000D1C3
0000D1C3
0000D1C3
0000D1C3
0000C1B3
ENDCHAR
STARTCHAR ordfeminine.case
ENCODING -1
SWIDTH 456 0
DWIDTH 15 0
BBX 12 11 1 14
BITMAP
0000783F1000
0000D39C6000
0003C0D2C000
000975F1B300
000E1BC66800
005A2C4C1D00
00B5770D3940
02E0DEEF83A0
0783B002E0C1
0D39FEEEF576
3C0D00005A2C
ENDCHAR
STARTCHAR ordmasculine.case
ENCODING -1
SWIDTH 489 0
DWIDTH 16 0
BBX 13 12 1 13
BITMAP
00028DEEB60000
005D72014AC200
04D25CEEA26C10
0C46C4016D2970
3C1D100005A2D0
5949000000D0E0
5939000000D0E0
3C1D10000693C0
0C46C4117D2970
03D24BEE926C10
005D82014AC200
00028CEDB60000
ENDCHAR
STARTCHAR paragraph.case
ENCODING -1
SWIDTH 893 0
DWIDTH 29 0
BBX 27 25 0 0
BITMAP
000027CEEEEEEEEEEEEEEEEEEEE0
0006D83100000000000000000000
007B24ADEEEEEEEEEEEEEEEEEEE0
04D19C4100000000000000000000
0B56B17DEEEEEEEEEEEEEEEEEEE0
0E0D28A200000000000000000000
2C1E0D100000000958769002C1E0
2C1E0D100000000958769002C1E0
0E0D28A20000000958769002C1E0
0B56B17DEEEEEE3958769002C1E0
04D18C510000000958769002C1E0
007C24ADEEEEEE3958769002C1E0
0006D8310000000958769002C1E0
000017BDEEEEEE3958769002C1E0
000000000000000958769002C1E0
000000000000000958769002C1E0
000000000000000958769002C1E0
000000000000000958769002C1E0
000000000000000958769002C1E0
000000000000000958769002C1E0
000000000000000958769002C1E0
000000000000000958769002C1E0
000000000000000958769002C1E0
000000000000000958769002C1E0
000000000000000958769002C1E0
ENDCHAR
STARTCHAR parenleft.case
ENCODING -1
SWIDTH 290 0
DWIDTH 9 0
BBX 9 29 1 -2
BITMAP
000796B4C0
000E2C4B50
006A4C2D00
00D3B59600
03D1E1E100
088694B000
0C3B496000
2D0E0D1000
5A3C1D0000
87694A0000
B496770000
D2B4950000
E1C3A40000
F0D2B30000
E0E1C20000
F0D2B30000
E1C3A40000
D2B4950000
B496770000
87694A0000
5A3C1D0000
2D0E0D1000
0C3A496000
088694B000
03D1E1E100
00C3B59600
006A4C2D00
000E2C4B50
000796B4D0
ENDCHAR
STARTCHAR parenright.case
ENCODING -1
SWIDTH 290 0
DWIDTH 9 0
BBX 10 29 -1 -1
BITMAP
887A5C0000
2E1E2D3000
097886A000
02D1E1D200
00C3A59700
00785A4C00
002D1E1D10
000C2B4960
0009587690
000685A3C0
0003B2D0E0
0001D0E0D2
0000E0D1C3
0000E0C2B4
0000D1C3A5
0000E0C2B4
0000E0D1C3
0001D0E0D2
0003B2D0E0
000685A3C0
0009587690
000C2B4960
002D1E1D10
00785A4C00
00C3A59700
02D1E1D200
097786A000
2E1E2D3000
887A5C0000
ENDCHAR
STARTCHAR percent.case
ENCODING -1
SWIDTH 827 0
DWIDTH 26 0
BBX 25 25 1 0
BITMAP
0039DEEA4000000000C55C1C50
06DADEDBC900000007A1D37A00
4D6D402C8B7000002E1983D100
C4C40001E2E10000C64D1C4000
E0E20000D1C30006B1D4890000
E0C40001E0C3002E2893D10000
B55D403C72E000B63D1C400000
4D24BEC60B7006C0C589000000
06D62015C9001E27A3D1000000
0029DEDA4000A72D2D40000000
000000000005C0C58900000000
00000000001D37B4D100000000
00000006B0982E200000000000
0000001E24D1B6000000000000
000000A81D46C0017CEEB50000
000004D0891E202D93014CA000
00000D43D1A701D62AED81A900
00008A0C55C006A2E6119B1E20
0002E17A1D300A5880000C3960
000B63E198000C3A50000A5870
006B0C54D0000A5880000C3960
01E27B1D400006A2E6129B1E20
0A82E289000001D52AED81A900
4D1B63D10000002D92004BA000
D46C0C40000000017CEEB50000
ENDCHAR
STARTCHAR period.case
ENCODING -1
SWIDTH 262 0
DWIDTH 8 0
BBX 6 5 1 0
BITMAP
684A3C
684A3C
684A3C
684A3C
684A3C
ENDCHAR
STARTCHAR periodcentered.case
ENCODING -1
SWIDTH 262 0
DWIDTH 8 0
BBX 6 5 1 10
BITMAP
684A3C
684A3C
684A3C
684A3C
684A3C
ENDCHAR
STARTCHAR plus.case
ENCODING -1
SWIDTH 616 0
DWIDTH 20 0
BBX 18 17 1 4
BITMAP
000000625344000000
000000B39587000000
000000B39587000000
000000B39587000000
000000B39587000000
000000B39587000000
6EEEE2B395876EEEE2
000000B39587000000
6EEEE2B395876EEEE2
000000B39587000000
6EEEE2B395876EEEE2
000000B39587000000
000000B39587000000
000000B39587000000
000000B39587000000
000000B39587000000
000000514233000000
ENDCHAR
STARTCHAR plusminus.case
ENCODING -1
SWIDTH 618 0
DWIDTH 20 0
BBX 18 23 1 0
BITMAP
000000625344000000
000000B39587000000
000000B39587000000
000000B39587000000
000000B39587000000
000000B39587000000
6EEEE2B395876EEEE2
000000B39587000000
6EEEE2B395876EEEE2
000000B39587000000
6EEEE2B395876EEEE2
000000B39587000000
000000B39587000000
000000B39587000000
000000B39587000000
000000B39587000000
000000514233000000
000000000000000000
6EEEEEEEEEEEEEEEE2
000000000000000000
6EEEEEEEEEEEEEEEE2
000000000000000000
6EEEEEEEEEEEEEEEE2
ENDCHAR
STARTCHAR question.case
ENCODING -1
SWIDTH 598 0
DWIDTH 19 0
BBX 17 25 1 0
BITMAP
000027CDEDC7200000
0008DBCEEEDCE70000
00AA8D61015CAB9000
07B5D16DED81B7C500
0D2C36C302A92D3D00
3B2D0E20001D1B4C30
48391B00000A496860
00000000000C395770
00000000006A0C3860
0000000008B16B0B30
00000000AA06D13C00
0000000A909C11C400
0000004C0AA12C6000
000000A55C06D40000
000000E1B55C100000
000000E0D1B4000000
000001D0E0D2000000
000001D0E0D1000000
000000303030000000
000000000000000000
000001E0E0C2000000
000001E0E0C2000000
000001E0E0C2000000
000001E0E0C2000000
000001E0E0C2000000
ENDCHAR
STARTCHAR questiondown.case
ENCODING -1
SWIDTH 598 0
DWIDTH 19 0
BBX 17 25 1 -5
BITMAP
000000E0D1C3000000
000000E0D1C3000000
000000E0D1C3000000
000000E0D1C3000000
000000E0D1C3000000
000000000000000000
000000303021000000
000000E0D2B4000000
000000E0D2B3000000
000002D0E0C2000000
00001B73D0E1000000
0003D70A73C0000000
004D409C0A60000000
02D21BB17B00000000
0A51C808B100000000
2D0980AA1000000000
4A1E18800000000000
593B1D000000000000
4A3B2D000009375660
2D2D0E10001D1B4950
0B5C37B302A82D1E10
04D5D17DED81B79900
007C9D51015C99C000
0005ECDEEEDBD91000
000017BDEEC8300000
ENDCHAR
STARTCHAR quotedbl.case
ENCODING -1
SWIDTH 464 0
DWIDTH 15 0
BBX 15 8 0 17
BITMAP
3C1D0E002C0E0E10
3C1D0E002C0E0E10
3C1D0E002C0E0E10
3C1D0E002C0E0E10
3C1D0E002C0E0E10
3C1D0E002C0E0E10
3C1D0E002C0E0E10
3C1D0E002C0E0E10
ENDCHAR
STARTCHAR quotedblbase.case
ENCODING -1
SWIDTH 464 0
DWIDTH 15 0
BBX 15 8 0 -3
BITMAP
3C1D0E002C0E0E10
3C1D0E002C0E0E10
3C1D0E002C0E0E10
3C1D0E002C0E0E10
3C1D0E002C0E0E10
001D0E00000E0E10
001D0E00000E0E10
001D0E00000E0E10
ENDCHAR
STARTCHAR quotedblleft.case
ENCODING -1
SWIDTH 464 0
DWIDTH 15 0
BBX 15 8 0 18
BITMAP
3B1D00002C0E0000
3B1D00002C0E0000
3B1D00002C0E0000
3B1D0F002C0E0E10
3B1D0F002C0E0E10
3B1D0F002C0E0E10
3B1D0F002C0E0E10
3B1D0F002C0E0E10
ENDCHAR
STARTCHAR quotedblright.case
ENCODING -1
SWIDTH 464 0
DWIDTH 15 0
BBX 15 8 0 17
BITMAP
3C1D0E002C0E0E10
3C1D0E002C0E0E10
3C1D0E002C0E0E10
3C1D0E002C0E0E10
3C1D0E002C0E0E10
001D0E00000E0E10
001D0E00000E0E10
001D0E00000E0E10
ENDCHAR
STARTCHAR quoteleft.case
ENCODING -1
SWIDTH 212 0
DWIDTH 7 0
BBX 6 8 0 18
BITMAP
3B1D00
3B1D00
3B1D00
3B1D0F
3B1D0F
3B1D0F
3B1D0F
3B1D0F
ENDCHAR
STARTCHAR quoteright.case
ENCODING -1
SWIDTH 212 0
DWIDTH 7 0
BBX 6 8 0 17
BITMAP
3C1D0E
3C1D0E
3C1D0E
3C1D0E
3C1D0E
001D0E
001D0E
001D0E
ENDCHAR
STARTCHAR quotesinglbase.case
ENCODING -1
SWIDTH 212 0
DWIDTH 7 0
BBX 6 8 0 -3
BITMAP
3C1D0E
3C1D0E
3C1D0E
3C1D0E
3C1D0E
001D0E
001D0E
001D0E
ENDCHAR
STARTCHAR quotesingle.case
ENCODING -1
SWIDTH 212 0
DWIDTH 7 0
BBX 6 8 0 17
BITMAP
3C1D0E
3C1D0E
3C1D0E
3C1D0E
3C1D0E
3C1D0E
3C1D0E
3C1D0E
ENDCHAR
STARTCHAR registered.case
ENCODING -1
SWIDTH 895 0
DWIDTH 29 0
BBX 27 25 1 0
BITMAP
0000000037BDEEDCA51000000000
0000004CDDDEEEEEDDE920000000
00001ADBDA5210137CCBE6000000
0002D9CA20000000005D9C900000
002D7D70000000000001B9A90000
00C7C7000000000000001C7C6000
06B7A000A49FEEEEC60002E4E100
1E3E2000A49600003B9000798900
5B5A0000A49FEEEE91E2001E2E10
A6A60000A4960001E1B3000B4B50
D2C30000A49FEEEE91E100096880
E1D20000A49600003B80000786A0
F0D20000A49FEFFEE600000785A0
E1C30000A49603C0D200000966A0
D2960000A49600C48800000B4880
A65B0000A496006A2E00001E0B50
5B1E2000A496001E1A5000891E10
1E27A000A496000974C002E28900
06B0C7001011000110201C62E100
00C71D70000000000001B91C6000
002D51BA20000000005D70A90000
0003D806DA6210137CB32CA00000
00001BC4159CEEDB8317E6000000
0000004CC84200125AE920000000
0000000037BDEEECA51000000000
ENDCHAR
STARTCHAR uni030A.case
ENCODING -1
SWIDTH 0 0
DWIDTH 0 0
BBX 8 7 1 27
BITMAP
019DD910
0C8119A0
4C0000D2
5A0000B4
3D0000D2
0B9119A0
019DD810
ENDCHAR
STARTCHAR section.case
ENCODING -1
SWIDTH 645 0
DWIDTH 21 0
BBX 19 32 1 -4
BITMAP
0000038CDEEDA6100000
0001AD73100148D91000
001C800000000007D200
00A7017BEEEDB7304C10
02D03DCDEEEDB8BA1970
05A0D5E510027E375120
0694B1E1000002100000
04B4B07E841000000000
01E2D3027BEB71000000
007B4D6100038D810000
000AC49DB741019C1000
00006DA546ADA308A000
002B105ADD944C70C400
01D34B20026CB1D36900
0974D26C7100B6793B00
0E1B47A10000684A3C00
1D0E0C200001C3785A00
1E0E1B70028C43D2A600
0D2A72CB51103B35C000
0882D6059DD9501A1000
01D52BC62015AD600000
003D8138CEA6119B1000
00019D830149D817B000
0000027CEA7219C0B400
00000000159E90A66900
000011000000A6593B00
20827C510003C5784A00
C46C14ADEEEB52D39700
4D26D94210138E53E100
05D516ACEEDB724D5000
003BD74100136BC30000
000037BDEEEC94000000
ENDCHAR
STARTCHAR semicolon.case
ENCODING -1
SWIDTH 338 0
DWIDTH 11 0
BBX 9 20 1 -3
BITMAP
000E0D1C30
000E0D1C30
000E0D1C30
000E0D1C30
000E0D1C30
0000000000
0000000000
0000000000
0000000000
0000000000
0000000000
0000000000
004B1E0E10
0087693C00
00D2A57800
02D0E1B400
0693C1E000
0A5785A000
0E1C396000
4B1E0D2000
ENDCHAR
STARTCHAR seven.case
ENCODING -1
SWIDTH 505 0
DWIDTH 16 0
BBX 15 25 0 0
BITMAP
1EEEEEEEEEEEEED0
0000000000000000
1EEEEEEEEEEEEED0
0000000000000000
1EEEEEEEEEEEEED0
0000000000000000
000000000C1A3860
000000003C1E0D20
00000000785A2D00
00000000C3966900
00000001E0D2B400
00000005A3C1E000
0000000A5784B000
0000000E1B496000
0000003C1E0D2000
000000875A2D0000
000000C396780000
000001D0D1B40000
00000693C1E00000
00000A5785A00000
00000E1C39600000
00004B1E0D200000
000087593C000000
0000C3A578000000
0002D0E1B4000000
ENDCHAR
STARTCHAR six.case
ENCODING -1
SWIDTH 558 0
DWIDTH 18 0
BBX 17 25 0 0
BITMAP
000004ADEEDA500000
0002CCCEEEDCBD4000
002D8D820038D6D400
01D6D43BEDA25D3D10
06A782D5116D1A6870
0C4C3960000874A3B0
0E1D1C300003526170
0E0E0C200000000000
1E0E0C200000000000
1E0E0C2AEED9300000
1E0E0C210127D90000
1E0E0C20000009C000
1E0E0C29EEC7109900
1E0E0C29EEDAD31D20
1E0E0C22017D5D1870
1E0E0C2000096964B0
1E0E0C20000594A2D0
0E0D1C30000593B2D0
0E1C3960000964A4B0
0C4782D5117D096880
06A1D43BEEA25C1D20
01D53D820039D29900
003E517CEEC718C000
0002CB520026DA1000
000005ADEED9400000
ENDCHAR
STARTCHAR slash.case
ENCODING -1
SWIDTH 504 0
DWIDTH 16 0
BBX 16 29 0 -2
BITMAP
0000000000D2966A
0000000003C0E1B4
000000000975B1E0
000000000D2A5690
000000004C1E1C40
00000000975A2E00
00000000E1A57900
00000004B1E0C300
0000000A66A2D000
0000000E1B478000
0000005B1E0D3000
000000A6693D0000
000001E1B4880000
000005A2D0D20000
00000A5793C00000
00001E1C38700000
00006A2D0D200000
0000B5784C000000
0001E0C397000000
000692D0E2000000
000B4884B0000000
002E0D2960000000
00793C0E10000000
00C4875B00000000
02D0D2A600000000
0784C1E100000000
0C3975A000000000
3D0E2A5000000000
884B1E1000000000
ENDCHAR
STARTCHAR uni00AD.case
ENCODING -1
SWIDTH 445 0
DWIDTH 14 0
BBX 12 5 1 10
BITMAP
6EEEEEEEEEE9
000000000000
6EEEEEEEEEE9
000000000000
6EEEEEEEEEE9
ENDCHAR
STARTCHAR sterling.case
ENCODING -1
SWIDTH 618 0
DWIDTH 20 0
BBX 19 25 0 0
BITMAP
0000027BDEEDB7200000
00018ECDEEEDCBDA2000
001C9BC510026CA7D300
00B8A917CEEC619B3D20
04D3D1C920139C1B5780
088684C000000975A150
086685A0000003600000
0693C1D1000000000000
01A09357000000000000
00000000000000000000
5EEEEEEEEEEEEE300000
00000000000000000000
5EEEEEEEEEEEEE300000
00000000000000000000
5EEEEEEEEEEEEE300000
00000000000000000000
003D2A76900000000000
04C2893C100000000000
02102011000000000000
00000000000000000000
AEEEEEEEEEEEEEEEEEC0
00000000000000000000
AEEEEEEEEEEEEEEEEEC0
00000000000000000000
AEEEEEEEEEEEEEEEEEC0
ENDCHAR
STARTCHAR three.case
ENCODING -1
SWIDTH 558 0
DWIDTH 18 0
BBX 16 25 1 0
BITMAP
00016BDEEDA50000
005DBCEEEECCC300
06C6D720038D7E30
3D3D33BEDA25D5D0
A6873D4116D196A6
E1C2960000874A4B
8070610000593B2D
0000000000784A2D
000000000032965A
00000001ED9311B4
00000000127D9060
0000000000009C00
00000001EC710990
00000001EDAD31D2
0000000017D5D187
000000000096964B
0000000000594A2D
E0D1B30000593B2D
D1B3870000964A4B
A5691D5117D09688
4C1D53BEEA25C1D2
0B72D830039D2990
01D717CEEC718C00
001BC520026DA100
00005ADFED940000
ENDCHAR
STARTCHAR threequarters.case
ENCODING -1
SWIDTH 722 0
DWIDTH 23 0
BBX 21 26 1 -1
BITMAP
019EEC5000000002D1B500
0B9103D50000000B65C000
4C0BE63C0000004C0D3000
34272C0F000000C47A0000
0000000C000006A1E20000
0000AC6100001D29800000
000003D60000883D100000
0000863D0002D1B5000000
46283D0F000B65C0000000
3D1BE63D004C0D30000000
0BA204D600C47A00000000
018DEC5006A1E200000000
000000001D298000000000
00000000883D1000000000
00000002D1B5000974C000
0000000B65C0002E1B5000
0000004C0D3000983C0000
000000C47A0001E1B50000
000006A1D2000883D00000
00001D2980001E1A600000
0000882D10000000086780
0002D1B600008EEE486780
000B64C000000000086780
004C0D3000008EEE486780
00C47A0000000000086780
0000000000000000086780
ENDCHAR
STARTCHAR uni00B3.case
ENCODING -1
SWIDTH 332 0
DWIDTH 11 0
BBX 8 12 1 13
BITMAP
019EEC50
0B9103D5
4C0BE63C
34272C0F
0000000C
0000AC61
000003D6
0000863D
46283D0F
3D1BE63D
0BA204D6
018DEC50
ENDCHAR
STARTCHAR tildecomb.case
ENCODING -1
SWIDTH 0 0
DWIDTH 0 0
BBX 13 4 1 27
BITMAP
01AEE800000380
0B8119B1000780
3D00007D305E20
47000005CEB300
ENDCHAR
STARTCHAR trademark.case
ENCODING -1
SWIDTH 850 0
DWIDTH 27 0
BBX 26 13 0 13
BITMAP
AEEEEEEEEEC0867D1000008C0E
000000000000867EA00005EC0E
AEEEFEFEEEC08678C7002E5C0E
0000E0D2000086791D41D64C0E
0000E0D20000867F53DB91DC0E
0000E0D20000867AD36E1B9C0E
0000E0D2000086785D19DA2C0E
0000E0D20000867808B1A12C0E
0000E0D20000867800B8002C0E
0000E0D2000086780014002C0E
0000E0D2000086780000002C0E
0000E0D2000086780000002C0E
0000E0D2000086780000002C0E
ENDCHAR
STARTCHAR two.case
ENCODING -1
SWIDTH 558 0
DWIDTH 18 0
BBX 16 25 1 0
BITMAP
00015ADEEC930000
004DBCEEEECCB100
05D6D820039C9D10
2D3D43BEEA26B7B0
97792D5116D1B4C3
D2B3960000975969
C0B1920000593B3B
0000000000694B1D
0000000000C3792C
0000000009A1D369
000000007C1990C4
00000006D17C16B0
0000004E25D23E20
000003E34E32E400
00002E43E32D6000
0001D62D42D60000
001C71D62D700000
00B91C71D7000000
0790980A70000000
0000000000000000
5EEEEEEEEEEEEEE2
0000000000000000
5EEEEEEEEEEEEEE2
0000000000000000
5EEEEEEEEEEEEEE2
ENDCHAR
STARTCHAR uni00B2.case
ENCODING -1
SWIDTH 339 0
DWIDTH 11 0
BBX 9 11 1 14
BITMAP
007DED7000
08A202AA00
1E19EA1E20
291A0E1B30
00009A1E10
001B91B700
02D71C8000
0220120000
6EEEEEEE10
0000000000
6EEEEEEE10
ENDCHAR
STARTCHAR underscore.case
ENCODING -1
SWIDTH 667 0
DWIDTH 21 0
BBX 19 5 1 0
BITMAP
6EEEEEEEEEEEEEEEEEB0
00000000000000000000
6EEEEEEEEEEEEEEEEEB0
00000000000000000000
6EEEEEEEEEEEEEEEEEB0
ENDCHAR
STARTCHAR yen.case
ENCODING -1
SWIDTH 769 0
DWIDTH 25 0
BBX 25 25 0 0
BITMAP
4C1C64D10000000004D1B63D10
0982D289000000001D37B1D400
01D46B1D40000000A73E298000
004D1A73D1000006C1C54D0000
000891D27A00002E28A1D30000
0000C55C1C6000C64D1A700000
00003D1982E208B1D46C000000
000007A1D36B0B1992E2000000
000000B64D1B705D1C60000000
0000002D2892E3737B00000000
00000006B0C45C03E200000000
00000000B73D1A825000000000
000000001B1671C20000000000
00000000001010100000000000
0000000004A2C1E00000000000
00002EEE84A2C1E0DEEB000000
0000000004A2C1E00000000000
00002EEE84A2C1E0DEEB000000
0000000004A2C1E00000000000
00002EEE84A2C1E0DEEB000000
0000000004A2C1E00000000000
0000000004A2C1E00000000000
0000000004A2C1E00000000000
0000000004A2C1E00000000000
0000000004A2C1E00000000000
ENDCHAR
STARTCHAR zero.case
ENCODING -1
SWIDTH 558 0
DWIDTH 18 0
BBX 17 25 0 0
BITMAP
000004ADEEC9300000
0002CCCEEEEDDB1000
002D8D820039D9D100
01D6D43BEEA26C7B00
06A782D5116D1A5C40
0C4C39600008759690
0E1D1C30000593B3C0
0E0E0C200004A3C1D0
1E0E0C200004A3C1D0
1E0E0C200004A3C1D0
1E0E0C200004A3C1D0
1E0E0C200004A3C1D0
1E0E0C200004A3C1D0
1E0E0C200004A3C1D0
1E0E0C200004A3C1D0
1E0E0C200004A3C1D0
1E0E0C200004A3C1D0
0E0D1C30000593B1D0
0E1C396000097593C0
0C4782D5116D1A5690
06A1D43BEEA26C0C30
01D53D820039C27B00
003E517CEEC617D100
0002CB520026CB1000
000005ADEEC9400000
ENDCHAR
ENDFONT
